<svg width="56" height="64" viewBox="0 0 56 64" fill="none" xmlns="http://www.w3.org/2000/svg">
<g clip-path="url(#clip0_22_450)">
<path d="M50 4H6C4.4087 4 2.88258 4.63214 1.75736 5.75736C0.632141 6.88258 0 8.4087 0 10L0 54C0 55.5913 0.632141 57.1174 1.75736 58.2426C2.88258 59.3679 4.4087 60 6 60H23.1562V40.9613H15.2812V32H23.1562V25.17C23.1562 17.4012 27.7813 13.11 34.865 13.11C38.2575 13.11 41.805 13.715 41.805 13.715V21.34H37.8963C34.045 21.34 32.8438 23.73 32.8438 26.1812V32H41.4412L40.0662 40.9613H32.8438V60H50C51.5913 60 53.1174 59.3679 54.2426 58.2426C55.3679 57.1174 56 55.5913 56 54V10C56 8.4087 55.3679 6.88258 54.2426 5.75736C53.1174 4.63214 51.5913 4 50 4Z" fill="#373737"/>
</g>
<defs>
<clipPath id="clip0_22_450">
<rect width="56" height="64" fill="white"/>
</clipPath>
</defs>
</svg>
