<svg width="54" height="56" viewBox="0 0 54 56" fill="none" xmlns="http://www.w3.org/2000/svg">
<path d="M18.0617 43.4656C18.0617 43.6844 17.8113 43.8594 17.4956 43.8594C17.1363 43.8922 16.8859 43.7172 16.8859 43.4656C16.8859 43.2469 17.1363 43.0719 17.452 43.0719C17.7786 43.0391 18.0617 43.2141 18.0617 43.4656ZM14.6758 42.9734C14.5996 43.1922 14.8173 43.4437 15.144 43.5094C15.427 43.6187 15.7536 43.5094 15.819 43.2906C15.8843 43.0719 15.6774 42.8203 15.3508 42.7219C15.0677 42.6453 14.752 42.7547 14.6758 42.9734ZM19.4879 42.7875C19.1722 42.8641 18.9544 43.0719 18.9871 43.3234C19.0198 43.5422 19.3028 43.6844 19.6294 43.6078C19.9452 43.5312 20.1629 43.3234 20.1302 43.1047C20.0976 42.8969 19.8036 42.7547 19.4879 42.7875ZM26.6516 0.875C11.5512 0.875 0 12.3922 0 27.5625C0 39.6922 7.59919 50.0719 18.4536 53.725C19.8472 53.9766 20.3371 53.1125 20.3371 52.4016C20.3371 51.7234 20.3044 47.9828 20.3044 45.6859C20.3044 45.6859 12.6835 47.3266 11.0831 42.4266C11.0831 42.4266 9.84194 39.2437 8.05645 38.4234C8.05645 38.4234 5.56331 36.7062 8.23065 36.7391C8.23065 36.7391 10.9415 36.9578 12.4331 39.5609C14.8173 43.7828 18.8129 42.5688 20.3698 41.8469C20.6202 40.0969 21.3278 38.8828 22.1117 38.1609C16.0258 37.4828 9.88548 36.5969 9.88548 26.075C9.88548 23.0672 10.7129 21.5578 12.4548 19.6328C12.1718 18.9219 11.2464 15.9906 12.7379 12.2063C15.0133 11.4953 20.25 15.1594 20.25 15.1594C22.4274 14.5469 24.7681 14.2297 27.0871 14.2297C29.406 14.2297 31.7468 14.5469 33.9242 15.1594C33.9242 15.1594 39.1609 11.4844 41.4363 12.2063C42.9278 16.0016 42.0024 18.9219 41.7194 19.6328C43.4613 21.5688 44.5282 23.0781 44.5282 26.075C44.5282 36.6297 38.1157 37.4719 32.0298 38.1609C33.0315 39.025 33.8806 40.6656 33.8806 43.2359C33.8806 46.9219 33.848 51.4828 33.848 52.3797C33.848 53.0906 34.3488 53.9547 35.7315 53.7031C46.6185 50.0719 54 39.6922 54 27.5625C54 12.3922 41.752 0.875 26.6516 0.875ZM10.5823 38.5984C10.4407 38.7078 10.4734 38.9594 10.6585 39.1672C10.8327 39.3422 11.0831 39.4188 11.2246 39.2766C11.3661 39.1672 11.3335 38.9156 11.1484 38.7078C10.9742 38.5328 10.7238 38.4562 10.5823 38.5984ZM9.40645 37.7125C9.33024 37.8547 9.43911 38.0297 9.65685 38.1391C9.83105 38.2484 10.0488 38.2156 10.125 38.0625C10.2012 37.9203 10.0923 37.7453 9.8746 37.6359C9.65685 37.5703 9.48266 37.6031 9.40645 37.7125ZM12.9339 41.6063C12.7597 41.7484 12.825 42.0766 13.0754 42.2844C13.3258 42.5359 13.6415 42.5688 13.7831 42.3937C13.9246 42.2516 13.8593 41.9234 13.6415 41.7156C13.402 41.4641 13.0754 41.4312 12.9339 41.6063ZM11.6927 39.9984C11.5185 40.1078 11.5185 40.3922 11.6927 40.6437C11.8669 40.8953 12.1609 41.0047 12.3024 40.8953C12.4766 40.7531 12.4766 40.4688 12.3024 40.2172C12.15 39.9656 11.8669 39.8563 11.6927 39.9984Z" fill="#373737"/>
</svg>
