<svg width="59" height="67" viewBox="0 0 59 67" fill="none" xmlns="http://www.w3.org/2000/svg">
<g clip-path="url(#clip0_22_460)">
<path d="M29.5133 18.4511C21.1374 18.4511 14.3814 25.1642 14.3814 33.4869C14.3814 41.8095 21.1374 48.5226 29.5133 48.5226C37.8892 48.5226 44.6452 41.8095 44.6452 33.4869C44.6452 25.1642 37.8892 18.4511 29.5133 18.4511ZM29.5133 43.2621C24.1006 43.2621 19.6756 38.8783 19.6756 33.4869C19.6756 28.0955 24.0874 23.7117 29.5133 23.7117C34.9392 23.7117 39.351 28.0955 39.351 33.4869C39.351 38.8783 34.926 43.2621 29.5133 43.2621ZM48.7936 17.8361C48.7936 19.7859 47.2133 21.3431 45.2642 21.3431C43.3019 21.3431 41.7347 19.7728 41.7347 17.8361C41.7347 15.8994 43.3151 14.3291 45.2642 14.3291C47.2133 14.3291 48.7936 15.8994 48.7936 17.8361ZM58.8157 21.3955C58.5918 16.6976 57.5119 12.5363 54.0483 9.10776C50.5979 5.67925 46.4099 4.6062 41.682 4.37065C36.8093 4.09585 22.2041 4.09585 17.3314 4.37065C12.6166 4.59312 8.42868 5.66616 4.96507 9.09468C1.50145 12.5232 0.43471 16.6845 0.197656 21.3824C-0.0789062 26.2242 -0.0789062 40.7365 0.197656 45.5783C0.42154 50.2761 1.50145 54.4374 4.96507 57.866C8.42868 61.2945 12.6035 62.3675 17.3314 62.6031C22.2041 62.8779 36.8093 62.8779 41.682 62.6031C46.4099 62.3806 50.5979 61.3076 54.0483 57.866C57.4988 54.4374 58.5787 50.2761 58.8157 45.5783C59.0923 40.7365 59.0923 26.2373 58.8157 21.3955ZM52.5206 50.7734C51.4934 53.3382 49.5048 55.3142 46.9104 56.348C43.0253 57.879 33.8066 57.5257 29.5133 57.5257C25.22 57.5257 15.9881 57.866 12.1162 56.348C9.53493 55.3273 7.54632 53.3513 6.50591 50.7734C4.96507 46.913 5.32065 37.7529 5.32065 33.4869C5.32065 29.2208 4.97824 20.0476 6.50591 16.2003C7.53315 13.6355 9.52176 11.6595 12.1162 10.6257C16.0012 9.09468 25.22 9.448 29.5133 9.448C33.8066 9.448 43.0385 9.10776 46.9104 10.6257C49.4916 11.6464 51.4802 13.6224 52.5206 16.2003C54.0615 20.0607 53.7059 29.2208 53.7059 33.4869C53.7059 37.7529 54.0615 46.9261 52.5206 50.7734Z" fill="#373737"/>
</g>
<defs>
<clipPath id="clip0_22_460">
<rect width="59" height="67" fill="white"/>
</clipPath>
</defs>
</svg>
