<?xml version="1.0" encoding="UTF-8"?> <svg xmlns="http://www.w3.org/2000/svg" id="logo-mh" viewBox="0 0 180 43.59"><path d="M79,21.27h3.77L79,5.87Zm16.94,0h3.79V5.87Zm-3.22,2.81H86l3.37,13.78ZM76.65,0h3.44l5.22,21.27h8.14L98.7,0h3.46V43.59H99.77V24.08H95.32L90.53,43.59H88.28L83.49,24.08H79V43.59H76.65Z" style="fill:#1d1d1b"></path><path d="M7.1,29.7H5.9V20.61c0-.13,0-.5.13-1.13L3.68,28.36H3.42L1.07,19.48c.09.63.13,1,.13,1.13V29.7H0V15.35H1.18l2.33,9.34a1.85,1.85,0,0,1,0,.41,2.61,2.61,0,0,1,0-.41l2.33-9.34H7.1Z" style="fill:#1d1d1b"></path><path d="M17.62,25.38,16.36,17.6,15.1,25.38Zm1.93,4.32H18.29l-.51-3.19H14.93l-.5,3.19H13.2v0l2.56-14.36H17Z" style="fill:#1d1d1b"></path><polygon points="31.38 16.48 29.16 16.48 29.16 29.7 27.89 29.7 27.89 16.48 25.65 16.48 25.65 15.35 31.38 15.35 31.38 16.48" style="fill:#1d1d1b"></polygon><path d="M39.11,29.7H37.84V15.35h1.27Z" style="fill:#1d1d1b"></path><path d="M51.1,25.38,49.84,17.6l-1.27,7.78ZM53,29.7H51.77l-.51-3.19H48.41L47.9,29.7H46.67v0l2.56-14.36h1.26Z" style="fill:#1d1d1b"></path><path d="M64.78,28.69a1,1,0,0,1-1,1H60.15a1,1,0,0,1-.73-.29,1,1,0,0,1-.29-.73V25H60.4v3.54h3.1V25.15l-4-4.79a1.63,1.63,0,0,1-.41-1.09V16.36a1,1,0,0,1,.29-.73,1,1,0,0,1,.73-.28h3.62a1,1,0,0,1,.73.28,1,1,0,0,1,.28.73V19.7H63.5V16.48H60.4v3l4,4.79a1.63,1.63,0,0,1,.4,1.08Z" style="fill:#1d1d1b"></path><polygon points="120.04 29.72 118.77 29.72 118.77 22.82 115.31 22.82 115.31 29.72 114.03 29.72 114.03 15.37 115.31 15.37 115.31 21.68 118.77 21.68 118.77 15.37 120.04 15.37 120.04 29.72" style="fill:#1d1d1b"></polygon><polygon points="130.95 29.72 126.23 29.72 126.23 15.37 130.89 15.37 130.89 16.49 127.51 16.49 127.51 21.85 130.59 21.85 130.59 23 127.51 23 127.51 28.59 130.95 28.59 130.95 29.72" style="fill:#1d1d1b"></polygon><path d="M143.24,29.72H141.9L139.23,22l.18-.25h2.27V16.49h-3.27V29.72h-1.28V15.36h4.81a1,1,0,0,1,.73.29,1,1,0,0,1,.29.73v5.45c0,.69-.47,1-1.39,1h-.41l-.38,0,2.46,6.88" style="fill:#1d1d1b"></path><polygon points="155.35 29.72 154.47 29.72 150.63 19.16 150.63 29.72 149.43 29.72 149.43 15.37 150.39 15.37 154.15 25.74 154.15 15.37 155.35 15.37 155.35 29.72" style="fill:#1d1d1b"></polygon><path d="M166,25.4l-1.26-7.78-1.26,7.78Zm1.93,4.32h-1.26l-.51-3.19h-2.85l-.5,3.19h-1.23v0l2.56-14.36h1.25Z" style="fill:#1d1d1b"></path><polygon points="180 29.72 179.12 29.72 175.28 19.16 175.28 29.72 174.08 29.72 174.08 15.37 175.04 15.37 178.8 25.74 178.8 15.37 180 15.37 180 29.72" style="fill:#1d1d1b"></polygon></svg> 