<svg width="61" height="54" viewBox="0 0 61 54" fill="none" xmlns="http://www.w3.org/2000/svg">
<path d="M58.2101 13.0869C57.5449 10.5925 55.5851 8.62808 53.0967 7.96141C48.5863 6.75 30.5001 6.75 30.5001 6.75C30.5001 6.75 12.414 6.75 7.90352 7.96141C5.41512 8.62819 3.45528 10.5925 2.79011 13.0869C1.58154 17.608 1.58154 27.0409 1.58154 27.0409C1.58154 27.0409 1.58154 36.4738 2.79011 40.995C3.45528 43.4893 5.41512 45.3719 7.90352 46.0386C12.414 47.25 30.5001 47.25 30.5001 47.25C30.5001 47.25 48.5862 47.25 53.0967 46.0386C55.5851 45.3719 57.5449 43.4893 58.2101 40.995C59.4187 36.4738 59.4187 27.0409 59.4187 27.0409C59.4187 27.0409 59.4187 17.608 58.2101 13.0869ZM24.5849 35.6053V18.4765L39.7014 27.0411L24.5849 35.6053Z" fill="#373737"/>
</svg>
