<?xml version="1.0" encoding="utf-8"?>
<!-- Generator: Adobe Illustrator 24.0.2, SVG Export Plug-In . SVG Version: 6.00 Build 0)  -->
<svg version="1.1" id="Capa_1" xmlns="http://www.w3.org/2000/svg" xmlns:xlink="http://www.w3.org/1999/xlink" x="0px" y="0px"
	 viewBox="0 0 283.5 283.5" style="enable-background:new 0 0 283.5 283.5;" xml:space="preserve">
<style type="text/css">
	.st0{fill:#EDEDED;}
	.st1{fill-rule:evenodd;clip-rule:evenodd;fill:#383737;}
	.st2{fill:#E8C858;}
</style>
<path class="st0" d="M255.1,283.5H28.3C12.7,283.5,0,270.8,0,255.1V28.3C0,12.7,12.7,0,28.3,0h226.8c15.7,0,28.3,12.7,28.3,28.3
	v226.8C283.5,270.8,270.8,283.5,255.1,283.5z"/>
<path class="st1" d="M34.5,104.1V13c-0.1-1.5,0.3-3.1,1-4.4c0.4-0.8,1.1-1.5,1.9-2c0.8-0.5,1.8-0.7,2.7-0.7c54.3,0,108.5,0,162.8,0
	c3.9,0,6.2,2.3,6.3,6.3c0,2.6,0,5.2,0,7.8c0,5.2,0,10.3,0,15.5c0,1.6,0.2,2.3,2,2.7c3.6,0.9,6.8,3,9.1,6c2.3,3,3.5,6.6,3.5,10.3v19
	c0,3.3-1.8,5.3-5.1,5.5c-0.9,0.1-1,0.4-1,1.1v6.8c0,0.7-0.1,1.4-0.3,2.1c-0.3,0.7-0.7,1.3-1.2,1.8c-0.5,0.5-1.1,0.9-1.8,1.2
	c-0.7,0.3-1.4,0.4-2.1,0.3h-18.4c-0.7,0-1.4-0.1-2.1-0.3c-0.7-0.3-1.3-0.7-1.8-1.2c-0.5-0.5-0.9-1.1-1.2-1.8
	c-0.3-0.7-0.4-1.4-0.3-2.1V80c0-0.8-0.2-1-1-1c-3.3-0.2-5.1-2.2-5.1-5.5v-19c0-3.9,1.4-7.7,3.9-10.8c2.5-3,6-5.1,9.8-5.8
	c1.1-0.2,1.3-0.7,1.3-1.7c0-1.9,0-3.9,0-5.8v0v0v0v0v0v0v0v0v0v0v0v0v0v0c0-3.9,0-7.8,0-11.7c0-1.4-0.4-1.6-1.7-1.6
	c-36.1,0-72.3,0-108.4,0H48.3c-1.5,0-2,0.3-2,1.9c0.1,48.4,0.1,96.9,0,145.3v30.6c0,2.9,1.7,4.8,4.3,4.8c2.6-0.1,4.2-1.9,4.2-4.8
	v-81.7c0-6.2,5.1-12.9,11-14.6c0.6-0.1,1.1-0.2,1.7-0.1h174c4.7,0,7.5,2.8,7.5,7.5v159.7c0,4.7-2.8,7.5-7.5,7.5H147H99.1
	c-0.9,0-1.8,0.3-2.5,0.8c-3.1,2.3-6.9,3.3-10.7,3.1c-3.8-0.3-7.4-1.9-10.2-4.5c-2.8-2.6-4.5-6.2-4.9-10c-0.4-3.8,0.5-7.6,2.6-10.8
	c0.6-0.8,0.9-1.8,0.9-2.8V111.4c0-1.6-0.4-1.8-1.9-1.8c-4.3,0.1-5.7,1.4-5.7,5.7v80c0.1,2.2-0.3,4.3-1.1,6.3c-0.8,2-2,3.8-3.5,5.4
	c-1.5,1.5-3.3,2.8-5.3,3.6c-2,0.8-4.1,1.3-6.3,1.3c-2.2,0-4.3-0.4-6.3-1.3c-2-0.8-3.8-2.1-5.3-3.6c-1.5-1.5-2.7-3.4-3.5-5.4
	c-0.8-2-1.2-4.1-1.1-6.3L34.5,104.1z M236.6,260L87.9,110.3h4.2h35.7c0.5,0,1,0.1,1.4,0.3c0.5,0.2,0.9,0.5,1.2,0.8
	c35.1,35.1,70.3,70.2,105.5,105.2c0.4,0.4,0.7,0.8,0.9,1.3c0.2,0.5,0.3,1,0.3,1.5c0,13.4,0,26.8,0,40.3L236.6,260z M227.8,261.4
	L86.6,119.3l-0.5,0.3c0,14.2,0,28.3,0,42.5c0,0.8,0.4,1.2,0.9,1.7c0,0,0.1,0.1,0.1,0.1c32.2,32.1,64.3,64.2,96.5,96.3
	c0.3,0.3,0.7,0.6,1.1,0.8c0.4,0.2,0.9,0.3,1.4,0.2h40.6C227.1,261.2,227.4,261.3,227.8,261.4z M140,110.3h14.7h29.1
	c0.5,0,0.9,0.1,1.4,0.2c0.4,0.2,0.8,0.4,1.1,0.8c16.6,16.6,33.2,33.2,49.8,49.7c0.3,0.3,0.6,0.6,0.8,1c0.2,0.4,0.3,0.8,0.3,1.3
	c0,14.6,0,29.1,0,43.7v1L140,110.3z M174.1,261.2h0.6l-0.4,0.2L174.1,261.2z M86.2,172.8l87.9,88.4h-0.8h-39.8c-0.5,0-1-0.1-1.5-0.2
	c-0.5-0.2-0.9-0.5-1.2-0.8c-14.5-14.5-29.1-29.1-43.6-43.6c-0.3-0.2-0.6-0.6-0.8-0.9c-0.2-0.4-0.3-0.8-0.3-1.2v-41.1
	C86.1,173.1,86.1,172.9,86.2,172.8z M236.9,152.3l-41.7-41.9c0.1-0.2,0.4-0.1,0.7-0.1c0.1,0,0.3,0.1,0.4,0.1h39.3c0.1,0,0.2,0,0.3,0
	l0,0c0.7,0,1.3,0,1.3,1.2c0,8.9,0,17.9,0,26.8c0,4.5,0,8.9,0,13.4C237.1,152,237,152.2,236.9,152.3z M190.5,72.2h12.4
	c0.9,0,1.9,0,2.8,0h0l0,0c3.3,0,6.5,0,9.7,0.1c1.1,0,1.5-0.1,1.5-1.4V54.5c0-2.7-1.1-5.3-3-7.2c-1.9-1.9-4.5-3-7.2-3h-7.5
	c-2.7,0-5.3,1.1-7.2,3c-1.9,1.9-3,4.5-3,7.2c0,1.8,0,3.6,0,5.5v0v0c0,3.6,0,7.2,0,10.9C189.1,72,189.5,72.2,190.5,72.2z
	 M121.6,261.2H117h-12.6c-0.8,0-1.2,0-1.3-1.1c-0.6-8.8-7-15.1-15.8-15.5c-0.7,0-1.1,0-1.1-1v-17.2v-0.9L121.6,261.2z M196.3,85.5
	h6.6l2.9,0c0.5,0,1.1,0,1.6,0.1c1.3,0.1,2.5,0.2,3.1-0.3c0.7-0.7,0.6-1.9,0.4-3.1c-0.1-0.7-0.1-1.3-0.1-1.9c0.1-1-0.3-1.2-1.2-1.2
	h-9.3c-0.5,0-1.1-0.1-1.7-0.1c-1.3-0.2-2.6-0.3-3.2,0.5c-0.6,0.8-0.5,2-0.4,3.3c0.1,0.6,0.1,1.2,0.1,1.8
	C195.2,85.3,195.5,85.5,196.3,85.5z"/>
<path class="st2" d="M77.9,261.2c0-1.8,0.5-3.6,1.6-5.1c1-1.5,2.4-2.7,4.1-3.3c1.7-0.7,3.5-0.9,5.3-0.5c1.8,0.4,3.4,1.2,4.7,2.5
	c1.3,1.3,2.1,2.9,2.5,4.7c0.4,1.8,0.2,3.6-0.5,5.3c-0.7,1.7-1.8,3.1-3.3,4.1c-1.5,1-3.2,1.6-5,1.6c-1.2,0-2.4-0.2-3.5-0.7
	c-1.1-0.5-2.1-1.1-3-2c-0.9-0.9-1.5-1.9-2-3C78.1,263.6,77.9,262.4,77.9,261.2z"/>
</svg>
