<svg width="263" height="216" viewBox="0 0 263 216" fill="none" xmlns="http://www.w3.org/2000/svg">
<path fill-rule="evenodd" clip-rule="evenodd" d="M65.0215 59.1229V4.28464C64.9646 3.36085 65.1782 2.4405 65.6362 1.63613C65.9053 1.12747 66.312 0.704592 66.8098 0.415606C67.3076 0.12662 67.8765 -0.0168394 68.4519 0.00157395C101.129 0.0302507 133.806 0.0302507 166.482 0.00157395C168.843 0.00157395 170.239 1.37193 170.245 3.78078C170.245 5.34002 170.249 6.89859 170.253 8.45669C170.261 11.5715 170.269 14.6846 170.245 17.7976C170.245 18.7501 170.392 19.1618 171.437 19.4198C173.616 19.9726 175.547 21.24 176.92 23.0191C178.293 24.7983 179.029 26.9865 179.011 29.2335V40.6939C179.011 42.6849 177.911 43.8771 175.937 44C175.415 44.0368 175.323 44.215 175.323 44.6636V48.7562C175.348 49.1916 175.28 49.6274 175.124 50.0346C174.968 50.4418 174.727 50.8112 174.417 51.1181C174.107 51.425 173.736 51.6625 173.327 51.8147C172.918 51.9669 172.481 52.0303 172.046 52.0008H160.98C160.544 52.0288 160.107 51.9635 159.699 51.8094C159.29 51.6553 158.919 51.4159 158.61 51.1072C158.301 50.7984 158.061 50.4274 157.907 50.0188C157.753 49.6102 157.688 49.1735 157.716 48.7378V44.6452C157.716 44.172 157.617 44.0307 157.101 44.0307C155.121 43.914 154.027 42.7034 154.027 40.7062V29.2519C154.026 26.8876 154.851 24.5972 156.36 22.7762C157.868 20.9553 159.966 19.7182 162.29 19.2785C162.978 19.1495 163.064 18.8607 163.064 18.2707C163.064 17.103 163.06 15.9345 163.055 14.7658V14.7651V14.7644V14.7638V14.7631V14.7624V14.7617V14.761V14.7603V14.7596V14.7589V14.7581V14.7574V14.7567V14.756C163.045 12.4164 163.036 10.0759 163.064 7.73814C163.064 6.89013 162.8 6.7611 162.044 6.7611C140.281 6.78568 118.52 6.78568 96.7618 6.7611H73.3269C72.4417 6.7611 72.1528 6.92085 72.1528 7.89177C72.1856 37.0479 72.1856 66.2061 72.1528 95.3663V113.801C72.1528 115.565 73.1979 116.72 74.7409 116.69C76.284 116.659 77.243 115.522 77.243 113.814V64.6042C77.243 60.8558 80.3169 56.8124 83.8948 55.8046C84.2274 55.7298 84.5687 55.7008 84.9092 55.7185H189.647C192.499 55.7185 194.165 57.3777 194.165 60.2167V156.386C194.165 159.232 192.505 160.897 189.665 160.897H132.769H103.918C103.383 160.878 102.858 161.048 102.436 161.376C100.57 162.732 98.2874 163.39 95.986 163.234C93.6845 163.078 91.5111 162.119 89.8455 160.523C88.18 158.928 87.1284 156.799 86.8744 154.507C86.6205 152.215 87.1804 149.907 88.4563 147.986C88.8104 147.497 88.9941 146.906 88.9789 146.302V63.535C88.9789 62.601 88.7145 62.4351 87.86 62.4535C85.278 62.5149 84.4481 63.3076 84.4481 65.8947V114.078C84.4807 115.375 84.2533 116.665 83.7794 117.872C83.3054 119.08 82.5945 120.181 81.6885 121.109C80.7824 122.038 79.6996 122.776 78.5037 123.28C77.3079 123.784 76.0233 124.044 74.7256 124.044C73.4278 124.044 72.1432 123.784 70.9474 123.28C69.7515 122.776 68.6687 122.038 67.7626 121.109C66.8566 120.181 66.1457 119.08 65.6717 117.872C65.1978 116.665 64.9704 115.375 65.0031 114.078L65.0215 59.1229ZM186.745 152.982L97.1982 62.859H99.7065H121.223C121.522 62.8479 121.82 62.902 122.096 63.0177C122.372 63.1334 122.62 63.3078 122.822 63.5289C143.982 84.6555 165.152 105.774 186.333 126.884C186.566 127.097 186.749 127.358 186.871 127.648C186.993 127.939 187.051 128.253 187.04 128.568C187.016 136.651 187.016 144.729 187.04 152.804L186.745 152.982ZM181.397 153.812L96.3991 68.2667L96.1224 68.4695C96.147 76.9906 96.147 85.5117 96.1224 94.0329C96.1224 94.5231 96.3751 94.7658 96.6513 95.0312C96.6798 95.0586 96.7085 95.0862 96.7372 95.1143C116.102 114.434 135.461 133.758 154.814 153.087C155.006 153.292 155.239 153.453 155.499 153.56C155.76 153.666 156.04 153.714 156.32 153.701H180.782C180.989 153.725 181.194 153.761 181.397 153.812ZM128.533 62.8591H137.361H154.857C155.139 62.8445 155.42 62.8919 155.682 62.9981C155.943 63.1043 156.178 63.2666 156.369 63.4736C166.353 73.4613 176.347 83.4347 186.352 93.3938C186.556 93.5638 186.721 93.7759 186.836 94.0156C186.95 94.2553 187.012 94.5169 187.016 94.7825C186.991 103.545 186.991 112.31 187.016 121.077V121.692L128.533 62.8591ZM149.085 153.707H149.466L149.232 153.855L149.085 153.707ZM96.1471 100.473L149.085 153.707H148.587H124.654C124.355 153.721 124.057 153.67 123.78 153.558C123.503 153.445 123.254 153.274 123.049 153.056C114.307 144.301 105.551 135.557 96.7803 126.823C96.5802 126.673 96.4161 126.481 96.3002 126.26C96.1842 126.038 96.1193 125.794 96.1102 125.544V100.798C96.1151 100.689 96.1274 100.58 96.1471 100.473ZM186.923 88.152L161.798 62.9083C161.87 62.7955 162.025 62.8306 162.19 62.8681C162.277 62.8878 162.367 62.9083 162.449 62.9083H186.081C186.137 62.9083 186.193 62.9068 186.247 62.9054L186.247 62.9054C186.682 62.8942 187.027 62.8854 187.022 63.6395C186.997 69.0267 187.005 74.4138 187.013 79.8009C187.017 82.4945 187.022 85.1881 187.022 87.8816C186.994 87.9736 186.961 88.0639 186.923 88.152ZM158.988 39.932H166.452C167.014 39.932 167.576 39.9307 168.137 39.9295H168.138H168.138C170.098 39.9253 172.046 39.9211 173.958 39.9688C174.616 39.9811 174.88 39.8951 174.88 39.1208V29.2888C174.88 27.6664 174.238 26.1099 173.095 24.9587C171.951 23.8076 170.399 23.1551 168.776 23.1437H164.275C162.645 23.1437 161.081 23.7912 159.928 24.9436C158.775 26.096 158.128 27.659 158.128 29.2888C158.128 30.3846 158.133 31.4783 158.137 32.5709V32.5727V32.5745C158.147 34.7587 158.156 36.9384 158.128 39.1208C158.115 39.8275 158.374 39.932 158.988 39.932ZM117.486 153.707H114.701H107.127C106.623 153.707 106.377 153.707 106.334 153.037C105.996 147.759 102.116 143.973 96.8048 143.685C96.3991 143.685 96.1224 143.685 96.1224 143.113V132.783V132.224L117.486 153.707ZM162.455 47.9144H166.445L168.204 47.9267C168.514 47.9229 168.855 47.9551 169.194 47.9871C169.957 48.0592 170.707 48.13 171.056 47.7853C171.473 47.3682 171.398 46.6449 171.322 45.9041C171.281 45.5097 171.239 45.1104 171.271 44.7496C171.327 44.1597 171.105 44.0307 170.54 44.0307H164.915C164.606 44.0363 164.261 43.9931 163.917 43.9498C163.135 43.8518 162.355 43.7538 162.001 44.2273C161.657 44.6863 161.723 45.4431 161.79 46.2093C161.822 46.5817 161.855 46.9562 161.841 47.2998C161.798 47.8037 161.976 47.9144 162.455 47.9144Z" fill="#373737"/>
<path d="M91.165 153.715C91.1697 152.63 91.4949 151.571 92.0998 150.671C92.7047 149.771 93.5622 149.069 94.5645 148.655C95.5668 148.241 96.6692 148.132 97.7331 148.343C98.797 148.554 99.7749 149.074 100.544 149.839C101.313 150.604 101.838 151.579 102.055 152.642C102.271 153.704 102.168 154.807 101.759 155.812C101.35 156.816 100.654 157.678 99.7568 158.287C98.8598 158.897 97.8026 159.228 96.7181 159.238C95.9901 159.243 95.2683 159.103 94.5944 158.828C93.9205 158.552 93.3077 158.146 92.7915 157.633C92.2753 157.119 91.8658 156.509 91.5867 155.836C91.3075 155.164 91.1642 154.443 91.165 153.715Z" fill="#E8C858"/>
<path d="M19.7599 193C24.6999 193 27.1049 190.042 27.1049 186.077C27.1049 181.495 24.5374 179.252 19.7599 179.252H8.93744C7.11744 179.252 5.97994 178.18 5.97994 176.392C5.97994 174.605 7.08494 173.5 8.96994 173.5H25.9349V169.372H8.96994C4.25744 169.372 1.68994 172.2 1.68994 176.002C1.68994 179.902 4.45244 182.73 8.90494 182.73H19.7599C21.9699 182.73 23.2049 183.77 23.2049 185.785C23.2049 187.638 21.9699 188.873 19.7599 188.873H2.04744V193H19.7599Z" fill="#373737"/>
<path d="M63.2307 193L57.1857 170.77C56.8607 169.632 56.2107 169.08 55.2032 169.08C54.3257 169.08 53.6107 169.567 53.2207 170.477L45.9407 187.182L38.6607 170.477C38.2707 169.567 37.4582 169.08 36.5807 169.08C35.4757 169.08 34.8257 169.632 34.5332 170.77L28.4557 193H32.5182L37.0357 176.392L43.6982 191.765C44.1207 192.772 44.8357 193.325 45.8107 193.325C46.8182 193.325 47.4682 192.772 47.9232 191.765L54.6182 176.392L59.1357 193H63.2307Z" fill="#373737"/>
<path d="M95.5758 193L81.9583 170.38C81.4708 169.567 80.8858 169.047 79.9758 169.047C79.0658 169.047 78.4483 169.567 77.9608 170.38L64.3758 193H69.0883L79.8133 174.865L85.0783 183.705H77.8308L75.8808 187.052H87.0608L90.6033 193H95.5758Z" fill="#373737"/>
<path d="M125.907 193L118.789 185.818C121.844 184.648 123.664 181.885 123.664 177.985C123.664 172.72 120.479 169.372 115.084 169.372H98.1192V193H102.214V173.5H115.084C117.912 173.5 119.602 174.995 119.602 178.05C119.602 181.105 118.042 182.795 115.084 182.795H105.237V186.435H114.077L120.057 193H125.907Z" fill="#373737"/>
<path d="M139.241 193V173.5H148.211V169.372H126.143V173.5H135.113V193H139.241Z" fill="#373737"/>
<path d="M172.057 193V188.873H155.027V173.5H172.024V169.372H150.932V193H172.057ZM171.147 182.73V179.252H158.049V182.73H171.147Z" fill="#373737"/>
<path d="M205.135 193L192.33 180.715L204.095 169.372H198.732L189.86 178.115L180.857 169.372H175.17L186.935 180.715L174.26 193H179.622L189.437 183.347L199.35 193H205.135Z" fill="#373737"/>
<path d="M219.792 193V173.5H228.762V169.372H206.695V173.5H215.665V193H219.792Z" fill="#373737"/>
<path d="M235.838 193V169.372H231.711V193H235.838Z" fill="#373737"/>
<path d="M260.168 193V188.873H244.276V169.372H240.148V193H260.168Z" fill="#373737"/>
<path fill-rule="evenodd" clip-rule="evenodd" d="M26.135 173.7H8.96999C8.06635 173.7 7.37377 173.964 6.90782 174.419C6.44241 174.873 6.17999 175.54 6.17999 176.392C6.17999 177.243 6.44944 177.902 6.91477 178.349C7.38114 178.796 8.06642 179.052 8.93749 179.052H19.76C22.1766 179.052 24.0695 179.619 25.359 180.799C26.6518 181.982 27.305 183.749 27.305 186.077C27.305 188.1 26.691 189.886 25.4273 191.166C24.1628 192.448 22.2705 193.2 19.76 193.2H1.84749V188.673H19.76C20.8286 188.673 21.6366 188.374 22.1755 187.877C22.7129 187.38 23.005 186.665 23.005 185.785C23.005 184.82 22.7107 184.117 22.1795 183.652C21.6439 183.184 20.8369 182.93 19.76 182.93H8.90499C6.63582 182.93 4.77968 182.209 3.48947 180.973C2.19887 179.737 1.48999 178.001 1.48999 176.002C1.48999 174.055 2.14834 172.343 3.42427 171.117C4.69991 169.892 6.57346 169.172 8.96999 169.172H26.135V173.7ZM2.04749 193V188.873H19.76C21.97 188.873 23.205 187.638 23.205 185.785C23.205 183.77 21.97 182.73 19.76 182.73H8.90499C4.45249 182.73 1.68999 179.903 1.68999 176.002C1.68999 172.2 4.25749 169.372 8.96999 169.372H25.935V173.5H8.96999C7.08499 173.5 5.97999 174.605 5.97999 176.392C5.97999 178.18 7.11749 179.252 8.93749 179.252H19.76C24.5375 179.252 27.105 181.495 27.105 186.077C27.105 190.042 24.7 193 19.76 193H2.04749ZM63.4924 193.2H58.9829L54.5746 176.994L48.1056 191.847C47.8696 192.37 47.5758 192.791 47.1957 193.082C46.8122 193.375 46.3542 193.525 45.8108 193.525C45.2832 193.525 44.818 193.375 44.4276 193.083C44.0394 192.793 43.7358 192.371 43.5143 191.844C43.5142 191.843 43.514 191.843 43.5138 191.842L37.0791 176.995L32.6711 193.2H28.1938L34.3396 170.72C34.3397 170.72 34.3398 170.719 34.34 170.719C34.4929 170.125 34.7451 169.66 35.1245 169.345C35.5061 169.027 35.9941 168.88 36.5808 168.88C37.5364 168.88 38.4222 169.413 38.8444 170.398C38.8445 170.398 38.8444 170.398 38.8444 170.398L45.9408 186.682L53.0369 170.399C53.037 170.399 53.0369 170.399 53.0369 170.399C53.455 169.423 54.2375 168.88 55.2033 168.88C55.7458 168.88 56.2088 169.03 56.5802 169.346C56.9485 169.66 57.2087 170.122 57.3781 170.715L57.3788 170.718L63.4924 193.2ZM53.2208 170.477L45.9408 187.182L38.6608 170.477C38.2708 169.567 37.4583 169.08 36.5808 169.08C35.4758 169.08 34.8258 169.632 34.5333 170.77L28.4558 193H32.5183L37.0358 176.392L43.6983 191.765C44.1208 192.772 44.8358 193.325 45.8108 193.325C46.8183 193.325 47.4683 192.772 47.9233 191.765L54.6183 176.392L59.1358 193H63.2308L57.1858 170.77C56.8608 169.632 56.2108 169.08 55.2033 169.08C54.3258 169.08 53.6108 169.567 53.2208 170.477ZM95.9297 193.2H90.4897L86.9472 187.252H75.5329L77.7159 183.505H84.7265L79.814 175.257L69.2025 193.2H64.0225L77.7894 170.277C78.2963 169.432 78.9682 168.847 79.9759 168.847C80.9865 168.847 81.6252 169.436 82.1299 170.277L95.9297 193.2ZM81.9584 170.38C81.4709 169.567 80.8859 169.047 79.9759 169.047C79.0659 169.047 78.4484 169.567 77.9609 170.38L64.3759 193H69.0884L79.8134 174.865L85.0784 183.705H77.8309L75.8809 187.052H87.0609L90.6034 193H95.5759L81.9584 170.38ZM126.387 193.2H119.968L113.988 186.635H105.037V182.595H115.084C116.525 182.595 117.595 182.184 118.307 181.431C119.02 180.675 119.402 179.546 119.402 178.05C119.402 176.559 118.99 175.48 118.264 174.773C117.537 174.065 116.465 173.7 115.084 173.7H102.414V193.2H97.9193V169.172H115.084C117.824 169.172 120.024 170.023 121.54 171.564C123.055 173.104 123.864 175.312 123.864 177.985C123.864 181.835 122.116 184.627 119.143 185.89L126.387 193.2ZM118.789 185.818C118.857 185.791 118.924 185.765 118.991 185.737C121.924 184.524 123.664 181.798 123.664 177.985C123.664 172.72 120.479 169.372 115.084 169.372H98.1193V193H102.214V173.5H115.084C117.912 173.5 119.602 174.995 119.602 178.05C119.602 181.105 118.042 182.795 115.084 182.795H105.237V186.435H114.077L120.057 193H125.907L118.789 185.818ZM139.441 193.2H134.913V173.7H125.943V169.172H148.411V173.7H139.441V193.2ZM126.143 169.372H148.211V173.5H139.241V193H135.113V173.5H126.143V169.372ZM172.257 193.2H150.732V169.172H172.224V173.7H155.227V188.673H172.257V193.2ZM172.057 188.873V193H150.932V169.372H172.024V173.5H155.027V188.873H172.057ZM171.347 182.93H157.849V179.052H171.347V182.93ZM171.147 179.252V182.73H158.049V179.252H171.147ZM205.632 193.2H199.269L189.438 183.627L179.704 193.2H173.766L186.647 180.715L174.674 169.172H180.939L189.859 177.835L198.65 169.172H204.591L192.618 180.715L205.632 193.2ZM192.33 180.715L204.095 169.372H198.732L189.86 178.115L180.857 169.372H175.17L186.935 180.715L174.26 193H179.622L189.437 183.347L199.35 193H205.135L192.33 180.715ZM219.992 193.2H215.465V173.7H206.495V169.172H228.962V173.7H219.992V193.2ZM219.792 193H215.665V173.5H206.695V169.372H228.762V173.5H219.792V193ZM236.039 193.2H231.511V169.172H236.039V193.2ZM235.839 169.372V193H231.711V169.372H235.839ZM260.368 193.2H239.948V169.172H244.476V188.673H260.368V193.2ZM260.168 188.873V193H240.148V169.372H244.276V188.873H260.168Z" fill="#373737"/>
<circle cx="24.5" cy="171.5" r="7.5" fill="#373737"/>
<circle cx="24.5" cy="171.5" r="4.5" fill="#E8C858"/>
<path d="M10.5553 205V203.882H5.94405V199.72H10.5465V198.602H4.83525V205H10.5553ZM10.3089 202.219V201.278H6.76245V202.219H10.3089ZM16.9334 205V203.882H12.6302V198.602H11.5126V205H16.9334ZM23.4545 205V203.882H18.8433V199.72H23.4457V198.602H17.7345V205H23.4545ZM23.2081 202.219V201.278H19.6617V202.219H23.2081ZM30.8006 205V203.882H27.3334C26.1806 203.882 25.3446 202.994 25.3446 201.788C25.3446 200.574 26.1894 199.72 27.3334 199.72H30.8006V198.602H27.3334C25.547 198.602 24.227 199.852 24.227 201.735C24.227 203.592 25.547 205 27.3334 205H30.8006ZM34.8759 205V199.72H37.3047V198.602H31.3295V199.72H33.7583V205H34.8759ZM45.5655 205L43.6383 203.055C44.4655 202.738 44.9583 201.99 44.9583 200.934C44.9583 199.509 44.0959 198.602 42.6351 198.602H38.0415V205H39.1503V199.72H42.6351C43.4007 199.72 43.8583 200.125 43.8583 200.952C43.8583 201.779 43.4359 202.237 42.6351 202.237H39.9687V203.222H42.3623L43.9815 205H45.5655ZM50.4785 205C52.3001 205 53.6113 203.592 53.6113 201.735C53.6113 199.878 52.3265 198.602 50.4785 198.602H48.9209C47.1345 198.602 45.8145 199.852 45.8145 201.735C45.8145 203.592 47.1345 205 48.9209 205H50.4785ZM48.9209 203.882C47.7681 203.882 46.9321 202.994 46.9321 201.788C46.9321 200.574 47.7769 199.72 48.9209 199.72H50.4785C51.6577 199.72 52.4937 200.582 52.4937 201.788C52.4937 202.994 51.6577 203.882 50.4785 203.882H48.9209ZM60.0509 204.842C60.2093 205 60.3765 205.079 60.5613 205.079C60.8869 205.079 61.1157 204.833 61.1157 204.41V198.55H60.0509V203.231L55.5365 198.752C55.3693 198.585 55.2285 198.523 55.0613 198.523C54.7093 198.523 54.4893 198.778 54.4893 199.192V205H55.5541V200.318L60.0509 204.842ZM63.3777 205V198.602H62.2601V205H63.3777ZM70.9334 205V203.882H67.4662C66.3134 203.882 65.4774 202.994 65.4774 201.788C65.4774 200.574 66.3222 199.72 67.4662 199.72H70.9334V198.602H67.4662C65.6798 198.602 64.3598 199.852 64.3598 201.735C64.3598 203.592 65.6798 205 67.4662 205H70.9334ZM79.8575 205L76.1703 198.875C76.0383 198.655 75.8799 198.514 75.6335 198.514C75.3871 198.514 75.2199 198.655 75.0879 198.875L71.4095 205H72.6855L75.5895 200.09L77.0151 202.483H75.0527L74.5247 203.39H77.5519L78.5111 205H79.8575ZM85.9929 204.234V202.114H88.0961V201.374H85.9929V199.262H85.2449V201.374H83.1329V202.114H85.2449V204.234H85.9929ZM92.9042 205V199.72H97.225V198.602H91.7954V205H92.9042ZM96.961 202.351V201.374H93.7226V202.351H96.961ZM105.166 205L101.479 198.875C101.347 198.655 101.189 198.514 100.942 198.514C100.696 198.514 100.529 198.655 100.397 198.875L96.7181 205H97.9941L100.898 200.09L102.324 202.483H100.361L99.8333 203.39H102.861L103.82 205H105.166ZM110.66 205C111.909 205 112.719 204.234 112.719 203.064C112.719 202.316 112.296 201.806 111.716 201.621C112.191 201.471 112.604 201.066 112.604 200.257C112.604 199.166 111.777 198.602 110.528 198.602H105.846V205H110.66ZM110.616 202.219C111.24 202.219 111.584 202.518 111.584 203.046C111.584 203.671 111.003 203.891 110.202 203.891H106.964V199.72H110.105C110.932 199.72 111.469 199.826 111.469 200.503C111.469 201.058 111.17 201.278 110.536 201.278H107.773V202.219H110.616ZM114.494 204.472C114.494 204.138 114.23 203.874 113.887 203.874C113.552 203.874 113.297 204.138 113.297 204.472C113.297 204.806 113.552 205.07 113.887 205.07C114.23 205.07 114.494 204.806 114.494 204.472ZM121.892 205C123.696 205 125.007 203.592 125.007 201.735C125.007 199.878 123.696 198.602 121.892 198.602H118.187V205H121.892ZM119.296 203.882V199.72H121.892C123.044 199.72 123.889 200.582 123.889 201.788C123.889 202.994 123.044 203.882 121.892 203.882H119.296ZM127.1 205V198.602H125.983V205H127.1ZM135.052 205V201.278H131.039V202.219H133.926V203.882H131.189C130.036 203.882 129.2 202.994 129.2 201.788C129.2 200.574 130.045 199.72 131.189 199.72H134.656V198.602H131.189C129.402 198.602 128.082 199.852 128.082 201.735C128.082 203.592 129.402 205 131.189 205H135.052ZM137.258 205V198.602H136.141V205H137.258ZM141.593 205V199.72H144.022V198.602H138.047V199.72H140.475V205H141.593ZM151.572 205L147.885 198.875C147.753 198.655 147.595 198.514 147.348 198.514C147.102 198.514 146.935 198.655 146.803 198.875L143.124 205H144.4L147.304 200.09L148.73 202.483H146.768L146.24 203.39H149.267L150.226 205H151.572ZM157.682 205V203.882H153.379V198.602H152.261V205H157.682ZM163.93 204.234V202.114H166.033V201.374H163.93V199.262H163.182V201.374H161.07V202.114H163.182V204.234H163.93ZM174.537 205C175.787 205 176.596 204.234 176.596 203.064C176.596 202.316 176.174 201.806 175.593 201.621C176.068 201.471 176.482 201.066 176.482 200.257C176.482 199.166 175.655 198.602 174.405 198.602H169.723V205H174.537ZM174.493 202.219C175.118 202.219 175.461 202.518 175.461 203.046C175.461 203.671 174.88 203.891 174.079 203.891H170.841V199.72H173.983C174.81 199.72 175.347 199.826 175.347 200.503C175.347 201.058 175.047 201.278 174.414 201.278H171.651V202.219H174.493ZM178.749 205V198.602H177.631V205H178.749ZM184.395 205C186.217 205 187.528 203.592 187.528 201.735C187.528 199.878 186.243 198.602 184.395 198.602H182.837C181.051 198.602 179.731 199.852 179.731 201.735C179.731 203.592 181.051 205 182.837 205H184.395ZM182.837 203.882C181.685 203.882 180.849 202.994 180.849 201.788C180.849 200.574 181.693 199.72 182.837 199.72H184.395C185.574 199.72 186.41 200.582 186.41 201.788C186.41 202.994 185.574 203.882 184.395 203.882H182.837ZM197.153 205L195.516 198.981C195.428 198.673 195.252 198.523 194.979 198.523C194.741 198.523 194.548 198.655 194.442 198.902L192.471 203.425L190.5 198.902C190.394 198.655 190.174 198.523 189.937 198.523C189.637 198.523 189.461 198.673 189.382 198.981L187.737 205H188.837L190.06 200.503L191.864 204.666C191.978 204.938 192.172 205.088 192.436 205.088C192.709 205.088 192.885 204.938 193.008 204.666L194.821 200.503L196.044 205H197.153ZM205.911 205L202.223 198.875C202.091 198.655 201.933 198.514 201.687 198.514C201.44 198.514 201.273 198.655 201.141 198.875L197.463 205H198.739L201.643 200.09L203.068 202.483H201.106L200.578 203.39H203.605L204.564 205H205.911ZM208.633 205V199.72H211.062V198.602H205.087V199.72H207.515V205H208.633ZM217.519 205V203.882H212.907V199.72H217.51V198.602H211.799V205H217.519ZM217.272 202.219V201.278H213.726V202.219H217.272ZM226 205L224.073 203.055C224.9 202.738 225.393 201.99 225.393 200.934C225.393 199.509 224.53 198.602 223.069 198.602H218.476V205H219.585V199.72H223.069C223.835 199.72 224.293 200.125 224.293 200.952C224.293 201.779 223.87 202.237 223.069 202.237H220.403V203.222H222.797L224.416 205H226ZM227.759 205V198.602H226.641V205H227.759ZM236.943 205L233.255 198.875C233.123 198.655 232.965 198.514 232.719 198.514C232.472 198.514 232.305 198.655 232.173 198.875L228.495 205H229.771L232.675 200.09L234.1 202.483H232.138L231.61 203.39H234.637L235.596 205H236.943ZM243.052 205V203.882H238.749V198.602H237.631V205H243.052ZM249.573 205V203.882H244.962V199.72H249.564V198.602H243.853V205H249.573ZM249.327 202.219V201.278H245.78V202.219H249.327ZM255.327 205C256.664 205 257.315 204.199 257.315 203.126C257.315 201.885 256.62 201.278 255.327 201.278H252.396C251.903 201.278 251.595 200.987 251.595 200.503C251.595 200.019 251.895 199.72 252.405 199.72H256.999V198.602H252.405C251.129 198.602 250.434 199.368 250.434 200.398C250.434 201.454 251.182 202.219 252.387 202.219H255.327C255.925 202.219 256.259 202.501 256.259 203.046C256.259 203.548 255.925 203.882 255.327 203.882H250.531V205H255.327Z" fill="black"/>
</svg>
