<svg width="334" height="77" viewBox="0 0 334 77" fill="none" xmlns="http://www.w3.org/2000/svg">
<path fill-rule="evenodd" clip-rule="evenodd" d="M0.00877823 24.1841V1.75263C-0.0144974 1.37475 0.0728872 0.998284 0.260247 0.669259C0.370327 0.461191 0.536665 0.288212 0.740285 0.170003C0.943905 0.0517936 1.17664 -0.00688815 1.41199 0.00064382C14.7784 0.012374 28.1448 0.012374 41.5112 0.00064382C42.4769 0.00064382 43.0477 0.561186 43.0502 1.54652C43.0502 2.18307 43.0519 2.81934 43.0535 3.45542L43.0536 3.4592C43.0569 4.73332 43.0603 6.0067 43.0502 7.28008C43.0502 7.66969 43.1106 7.83809 43.5381 7.94366C44.4294 8.16977 45.219 8.68818 45.7807 9.41595C46.3424 10.1437 46.6436 11.0388 46.6362 11.9579V16.6458C46.6362 17.4602 46.186 17.9479 45.3788 17.9981C45.1651 18.0132 45.1273 18.0861 45.1273 18.2696V19.9437C45.1377 20.1217 45.1101 20.3 45.0462 20.4666C44.9824 20.6332 44.8838 20.7843 44.757 20.9098C44.6302 21.0353 44.4781 21.1325 44.3109 21.1947C44.1437 21.257 43.9651 21.2829 43.787 21.2709H39.2606C39.0823 21.2823 38.9035 21.2556 38.7363 21.1926C38.5691 21.1296 38.4173 21.0316 38.291 20.9053C38.1646 20.779 38.0666 20.6273 38.0036 20.4601C37.9405 20.293 37.9138 20.1144 37.9253 19.9361V18.2621C37.9253 18.0685 37.885 18.0107 37.6738 18.0107C36.8641 17.9629 36.4165 17.4678 36.4165 16.6508V11.9654C36.416 10.9983 36.7534 10.0615 37.3705 9.31659C37.9876 8.57173 38.8456 8.06568 39.7962 7.88585C40.0779 7.83307 40.1131 7.71492 40.1131 7.47362C40.1131 6.99594 40.1111 6.51798 40.1091 6.03993V6.03965V6.03937V6.03909V6.03881V6.03853V6.03825V6.03797C40.1052 5.08028 40.1013 4.12222 40.1131 3.16528C40.1131 2.8184 40.0049 2.76562 39.6956 2.76562C30.7936 2.77568 21.8924 2.77568 12.9921 2.76562H3.40613C3.04401 2.76562 2.92584 2.83097 2.92584 3.22812C2.93925 15.1544 2.93925 27.0815 2.92584 39.0094V46.5503C2.92584 47.2717 3.35333 47.7443 3.98452 47.7317C4.6157 47.7191 5.00798 47.2541 5.00798 46.5553V26.4263C5.00798 24.893 6.26534 23.239 7.72889 22.8268C7.86495 22.7962 8.00456 22.7844 8.14382 22.7916H50.9866C52.1534 22.7916 52.8349 23.4703 52.8349 24.6316V63.9696C52.8349 65.1334 52.1559 65.8146 50.9941 65.8146H27.7207H15.9192C15.7005 65.8069 15.4859 65.8763 15.3132 66.0107C14.5501 66.5654 13.6162 66.8344 12.6748 66.7707C11.7334 66.7069 10.8443 66.3145 10.163 65.6619C9.48175 65.0094 9.05159 64.1382 8.94771 63.2008C8.84384 62.2634 9.07286 61.3193 9.59477 60.5335C9.73962 60.3336 9.81475 60.0916 9.80854 59.8448V25.9889C9.80854 25.6068 9.7004 25.539 9.35085 25.5465C8.29468 25.5717 7.95522 25.8959 7.95522 26.9541V46.6634C7.96857 47.1939 7.87554 47.7216 7.68168 48.2156C7.48782 48.7095 7.19702 49.1597 6.8264 49.5396C6.45579 49.9195 6.01284 50.2214 5.52369 50.4276C5.03454 50.6337 4.50907 50.7399 3.97822 50.7399C3.44738 50.7399 2.92191 50.6337 2.43276 50.4276C1.94361 50.2214 1.50066 49.9195 1.13004 49.5396C0.759426 49.1597 0.468629 48.7095 0.274767 48.2156C0.0809041 47.7216 -0.0120879 47.1939 0.0012575 46.6634L0.00877823 24.1841ZM49.7996 62.5771L13.1707 25.7124H14.1966H22.9981C23.1204 25.7078 23.2423 25.73 23.3552 25.7773C23.4681 25.8246 23.5694 25.896 23.6519 25.9864C32.3074 34.6282 40.9672 43.2667 49.6312 51.9018C49.7263 51.9889 49.8014 52.0955 49.8513 52.2144C49.9013 52.3333 49.9248 52.4616 49.9204 52.5905C49.9103 55.8967 49.9103 59.2013 49.9204 62.5042L49.7996 62.5771ZM47.6119 62.9165L12.8437 27.9244L12.7306 28.0074C12.7406 31.4929 12.7406 34.9785 12.7306 38.464C12.7306 38.6645 12.8339 38.7638 12.9469 38.8724L12.971 38.8957L12.9821 38.9064C20.9033 46.8092 28.8221 54.7137 36.7383 62.6198C36.8166 62.7039 36.9123 62.7699 37.0187 62.8133C37.1251 62.8567 37.2396 62.8765 37.3544 62.8712H47.3604C47.4451 62.8808 47.5291 62.8959 47.6119 62.9165ZM25.988 25.7124H29.5991H36.7559C36.8712 25.7064 36.9863 25.7258 37.0932 25.7693C37.2001 25.8127 37.2962 25.8791 37.3746 25.9638C41.4584 30.0493 45.5465 34.1288 49.6387 38.2026C49.7222 38.2721 49.7898 38.3589 49.8367 38.4569C49.8835 38.555 49.9087 38.662 49.9103 38.7707C49.9002 42.3551 49.9002 45.9403 49.9103 49.5264V49.7778L25.988 25.7124ZM34.395 62.8737H34.5505L34.455 62.934L34.395 62.8737ZM12.7407 41.0983L34.395 62.8737H34.191H24.4013C24.2791 62.8794 24.1571 62.8586 24.0438 62.8126C23.9305 62.7666 23.8285 62.6965 23.7449 62.6073C20.169 59.0262 16.5873 55.4493 12.9997 51.8767C12.9178 51.8155 12.8507 51.7368 12.8033 51.6463C12.7558 51.5558 12.7293 51.4559 12.7256 51.3538V41.2315C12.7276 41.1868 12.7326 41.1423 12.7407 41.0983ZM49.8725 36.0585L39.595 25.7325C39.6246 25.6864 39.6878 25.7008 39.7554 25.7161C39.791 25.7242 39.8278 25.7325 39.8615 25.7325H49.528C49.5511 25.7325 49.5738 25.732 49.596 25.7314C49.774 25.7268 49.915 25.7232 49.9127 26.0317C49.9027 28.2353 49.906 30.4389 49.9094 32.6425C49.911 33.7443 49.9127 34.8461 49.9127 35.9479C49.9014 35.9855 49.888 36.0224 49.8725 36.0585ZM38.4459 16.3341H41.4987C41.7288 16.3341 41.9587 16.3336 42.1883 16.3331C42.99 16.3314 43.7872 16.3297 44.5692 16.3492C44.8382 16.3542 44.9464 16.319 44.9464 16.0023V11.9805C44.9464 11.3169 44.6839 10.6802 44.2161 10.2093C43.7483 9.73845 43.1131 9.47156 42.4493 9.46692H40.6085C39.9416 9.46692 39.3019 9.73175 38.8303 10.2031C38.3587 10.6745 38.0938 11.3139 38.0938 11.9805C38.0938 12.4285 38.0958 12.8755 38.0977 13.3222V13.3234V13.3246C38.1016 14.218 38.1055 15.1096 38.0938 16.0023C38.0888 16.2914 38.1944 16.3341 38.4459 16.3341ZM21.4691 62.8737H20.33H17.2319C17.0257 62.8737 16.9251 62.8737 16.9075 62.5997C16.7692 60.4405 15.1824 58.8921 13.0097 58.774C12.8437 58.774 12.7306 58.774 12.7306 58.5402V54.3148V54.0861L21.4691 62.8737ZM39.864 19.5993H41.4961L42.2153 19.6043C42.3421 19.6028 42.4818 19.616 42.6203 19.6291C42.9325 19.6586 43.2393 19.6875 43.3821 19.5465C43.5528 19.3759 43.5221 19.0801 43.4907 18.777C43.474 18.6157 43.457 18.4524 43.4701 18.3048C43.4928 18.0635 43.4022 18.0107 43.1709 18.0107H40.8699C40.7437 18.013 40.6028 17.9953 40.4618 17.9776C40.1421 17.9375 39.8228 17.8975 39.6779 18.0911C39.5375 18.2789 39.5644 18.5885 39.5917 18.9019C39.605 19.0542 39.6183 19.2074 39.6126 19.3479C39.595 19.5541 39.6679 19.5993 39.864 19.5993Z" fill="#373737"/>
<path d="M10.5579 62.7807C10.5599 62.3188 10.6984 61.8677 10.9562 61.4843C11.2139 61.1009 11.5794 60.8022 12.0065 60.6258C12.4336 60.4493 12.9034 60.4031 13.3567 60.4928C13.8101 60.5825 14.2268 60.8042 14.5544 61.1299C14.8821 61.4557 15.1061 61.871 15.1982 62.3237C15.2904 62.7764 15.2466 63.2462 15.0724 63.674C14.8982 64.1019 14.6013 64.4687 14.2191 64.7284C13.8368 64.988 13.3863 65.129 12.9242 65.1334C12.614 65.1354 12.3064 65.076 12.0192 64.9586C11.732 64.8413 11.4709 64.6682 11.251 64.4495C11.031 64.2308 10.8565 63.9708 10.7375 63.6844C10.6186 63.3979 10.5575 63.0908 10.5579 62.7807Z" fill="#E8C858"/>
<path d="M73.7599 54C78.6999 54 81.1049 51.0425 81.1049 47.0775C81.1049 42.495 78.5374 40.2525 73.7599 40.2525H62.9374C61.1174 40.2525 59.9799 39.18 59.9799 37.3925C59.9799 35.605 61.0849 34.5 62.9699 34.5H79.9349V30.3725H62.9699C58.2574 30.3725 55.6899 33.2 55.6899 37.0025C55.6899 40.9025 58.4524 43.73 62.9049 43.73H73.7599C75.9699 43.73 77.2049 44.77 77.2049 46.785C77.2049 48.6375 75.9699 49.8725 73.7599 49.8725H56.0474V54H73.7599Z" fill="#373737"/>
<path d="M117.231 54L111.186 31.77C110.861 30.6325 110.211 30.08 109.203 30.08C108.326 30.08 107.611 30.5675 107.221 31.4775L99.9407 48.1825L92.6607 31.4775C92.2707 30.5675 91.4582 30.08 90.5807 30.08C89.4757 30.08 88.8257 30.6325 88.5332 31.77L82.4557 54H86.5182L91.0357 37.3925L97.6982 52.765C98.1207 53.7725 98.8357 54.325 99.8107 54.325C100.818 54.325 101.468 53.7725 101.923 52.765L108.618 37.3925L113.136 54H117.231Z" fill="#373737"/>
<path d="M149.576 54L135.958 31.38C135.471 30.5675 134.886 30.0475 133.976 30.0475C133.066 30.0475 132.448 30.5675 131.961 31.38L118.376 54H123.088L133.813 35.865L139.078 44.705H131.831L129.881 48.0525H141.061L144.603 54H149.576Z" fill="#373737"/>
<path d="M179.907 54L172.789 46.8175C175.844 45.6475 177.664 42.885 177.664 38.985C177.664 33.72 174.479 30.3725 169.084 30.3725H152.119V54H156.214V34.5H169.084C171.912 34.5 173.602 35.995 173.602 39.05C173.602 42.105 172.042 43.795 169.084 43.795H159.237V47.435H168.077L174.057 54H179.907Z" fill="#373737"/>
<path d="M193.241 54V34.5H202.211V30.3725H180.143V34.5H189.113V54H193.241Z" fill="#373737"/>
<path d="M226.057 54V49.8725H209.027V34.5H226.024V30.3725H204.932V54H226.057ZM225.147 43.73V40.2525H212.049V43.73H225.147Z" fill="#373737"/>
<path d="M259.135 54L246.33 41.715L258.095 30.3725H252.732L243.86 39.115L234.857 30.3725H229.17L240.935 41.715L228.26 54H233.622L243.437 44.3475L253.35 54H259.135Z" fill="#373737"/>
<path d="M273.792 54V34.5H282.762V30.3725H260.695V34.5H269.665V54H273.792Z" fill="#373737"/>
<path d="M289.838 54V30.3725H285.711V54H289.838Z" fill="#373737"/>
<path d="M314.168 54V49.8725H298.276V30.3725H294.148V54H314.168Z" fill="#373737"/>
<path fill-rule="evenodd" clip-rule="evenodd" d="M80.135 34.7H62.97C62.0664 34.7 61.3738 34.9642 60.9078 35.4191C60.4424 35.8734 60.18 36.5405 60.18 37.3925C60.18 38.2428 60.4494 38.9017 60.9148 39.3486C61.3811 39.7964 62.0664 40.0525 62.9375 40.0525H73.76C76.1766 40.0525 78.0695 40.6194 79.359 41.799C80.6518 42.9816 81.305 44.7493 81.305 47.0775C81.305 49.1 80.691 50.8856 79.4273 52.1661C78.1628 53.4475 76.2705 54.2 73.76 54.2H55.8475V49.6725H73.76C74.8286 49.6725 75.6366 49.3743 76.1755 48.8765C76.7129 48.3802 77.005 47.6653 77.005 46.785C77.005 45.8197 76.7107 45.1172 76.1795 44.6524C75.6439 44.1837 74.8369 43.93 73.76 43.93H62.905C60.6358 43.93 58.7797 43.2088 57.4895 41.9732C56.1989 40.7372 55.49 39.0012 55.49 37.0025C55.49 35.0553 56.1483 33.3427 57.4243 32.1173C58.6999 30.8922 60.5735 30.1725 62.97 30.1725H80.135V34.7ZM56.0475 54V49.8725H73.76C75.97 49.8725 77.205 48.6375 77.205 46.785C77.205 44.77 75.97 43.73 73.76 43.73H62.905C58.4525 43.73 55.69 40.9025 55.69 37.0025C55.69 33.2 58.2575 30.3725 62.97 30.3725H79.935V34.5H62.97C61.085 34.5 59.98 35.605 59.98 37.3925C59.98 39.18 61.1175 40.2525 62.9375 40.2525H73.76C78.5375 40.2525 81.105 42.495 81.105 47.0775C81.105 51.0425 78.7 54 73.76 54H56.0475ZM117.492 54.2H112.983L108.575 37.9938L102.106 52.8473C101.87 53.3697 101.576 53.791 101.196 54.0817C100.812 54.3749 100.354 54.525 99.8108 54.525C99.2832 54.525 98.818 54.3747 98.4276 54.083C98.0394 53.793 97.7358 53.3713 97.5143 52.8435C97.5142 52.8431 97.514 52.8427 97.5138 52.8423L91.0791 37.9953L86.6711 54.2H82.1938L88.3396 31.7202C88.3397 31.7197 88.3398 31.7192 88.34 31.7187C88.4929 31.1249 88.7451 30.66 89.1245 30.3446C89.5061 30.0274 89.9941 29.88 90.5808 29.88C91.5364 29.88 92.4222 30.4135 92.8444 31.3983C92.8445 31.3985 92.8444 31.3982 92.8444 31.3983L99.9408 47.6819L107.037 31.3987C107.037 31.3986 107.037 31.3988 107.037 31.3987C107.455 30.4235 108.237 29.88 109.203 29.88C109.746 29.88 110.209 30.0298 110.58 30.3462C110.949 30.66 111.209 31.1222 111.378 31.7151L111.379 31.7175L117.492 54.2ZM107.221 31.4775L99.9408 48.1825L92.6608 31.4775C92.2708 30.5675 91.4583 30.08 90.5808 30.08C89.4758 30.08 88.8258 30.6325 88.5333 31.77L82.4558 54H86.5183L91.0358 37.3925L97.6983 52.765C98.1208 53.7725 98.8358 54.325 99.8108 54.325C100.818 54.325 101.468 53.7725 101.923 52.765L108.618 37.3925L113.136 54H117.231L111.186 31.77C110.861 30.6325 110.211 30.08 109.203 30.08C108.326 30.08 107.611 30.5675 107.221 31.4775ZM149.93 54.2H144.49L140.947 48.2525H129.533L131.716 44.505H138.726L133.814 36.2569L123.202 54.2H118.022L131.789 31.2771C132.296 30.4323 132.968 29.8475 133.976 29.8475C134.986 29.8475 135.625 30.436 136.13 31.2771L149.93 54.2ZM135.958 31.38C135.471 30.5675 134.886 30.0475 133.976 30.0475C133.066 30.0475 132.448 30.5675 131.961 31.38L118.376 54H123.088L133.813 35.865L139.078 44.705H131.831L129.881 48.0525H141.061L144.603 54H149.576L135.958 31.38ZM180.387 54.2H173.968L167.988 47.635H159.037V43.595H169.084C170.525 43.595 171.595 43.1842 172.307 42.4308C173.02 41.6755 173.402 40.5456 173.402 39.05C173.402 37.5586 172.99 36.4798 172.264 35.7727C171.537 35.0646 170.465 34.7 169.084 34.7H156.414V54.2H151.919V30.1725H169.084C171.824 30.1725 174.024 31.0234 175.54 32.5641C177.055 34.1044 177.864 36.3122 177.864 38.985C177.864 42.8346 176.116 45.6268 173.143 46.8903L180.387 54.2ZM172.789 46.8175C172.857 46.7915 172.924 46.7647 172.991 46.7371C175.924 45.5241 177.664 42.7983 177.664 38.985C177.664 33.72 174.479 30.3725 169.084 30.3725H152.119V54H156.214V34.5H169.084C171.912 34.5 173.602 35.995 173.602 39.05C173.602 42.105 172.042 43.795 169.084 43.795H159.237V47.435H168.077L174.057 54H179.907L172.789 46.8175ZM193.441 54.2H188.913V34.7H179.943V30.1725H202.411V34.7H193.441V54.2ZM180.143 30.3725H202.211V34.5H193.241V54H189.113V34.5H180.143V30.3725ZM226.257 54.2H204.732V30.1725H226.224V34.7H209.227V49.6725H226.257V54.2ZM226.057 49.8725V54H204.932V30.3725H226.024V34.5H209.027V49.8725H226.057ZM225.347 43.93H211.849V40.0525H225.347V43.93ZM225.147 40.2525V43.73H212.049V40.2525H225.147ZM259.632 54.2H253.269L243.438 44.6273L233.704 54.2H227.766L240.647 41.7154L228.674 30.1725H234.939L243.859 38.8352L252.65 30.1725H258.591L246.618 41.7146L259.632 54.2ZM246.33 41.715L258.095 30.3725H252.732L243.86 39.115L234.857 30.3725H229.17L240.935 41.715L228.26 54H233.622L243.437 44.3475L253.35 54H259.135L246.33 41.715ZM273.992 54.2H269.465V34.7H260.495V30.1725H282.962V34.7H273.992V54.2ZM273.792 54H269.665V34.5H260.695V30.3725H282.762V34.5H273.792V54ZM290.039 54.2H285.511V30.1725H290.039V54.2ZM289.839 30.3725V54H285.711V30.3725H289.839ZM314.368 54.2H293.948V30.1725H298.476V49.6725H314.368V54.2ZM314.168 49.8725V54H294.148V30.3725H298.276V49.8725H314.168Z" fill="#373737"/>
<circle cx="78.5" cy="32.5" r="7.5" fill="#373737"/>
<circle cx="78.5" cy="32.5" r="4.5" fill="#E8C858"/>
<path d="M64.5553 66V64.8824H59.9441V60.72H64.5465V59.6024H58.8353V66H64.5553ZM64.3089 63.2192V62.2776H60.7625V63.2192H64.3089ZM70.9334 66V64.8824H66.6302V59.6024H65.5126V66H70.9334ZM77.4545 66V64.8824H72.8433V60.72H77.4457V59.6024H71.7345V66H77.4545ZM77.2081 63.2192V62.2776H73.6617V63.2192H77.2081ZM84.8006 66V64.8824H81.3334C80.1806 64.8824 79.3446 63.9936 79.3446 62.788C79.3446 61.5736 80.1894 60.72 81.3334 60.72H84.8006V59.6024H81.3334C79.547 59.6024 78.227 60.852 78.227 62.7352C78.227 64.592 79.547 66 81.3334 66H84.8006ZM88.8759 66V60.72H91.3047V59.6024H85.3295V60.72H87.7583V66H88.8759ZM99.5655 66L97.6383 64.0552C98.4655 63.7384 98.9583 62.9904 98.9583 61.9344C98.9583 60.5088 98.0959 59.6024 96.6351 59.6024H92.0415V66H93.1503V60.72H96.6351C97.4007 60.72 97.8583 61.1248 97.8583 61.952C97.8583 62.7792 97.4359 63.2368 96.6351 63.2368H93.9687V64.2224H96.3623L97.9815 66H99.5655ZM104.479 66C106.3 66 107.611 64.592 107.611 62.7352C107.611 60.8784 106.327 59.6024 104.479 59.6024H102.921C101.135 59.6024 99.8145 60.852 99.8145 62.7352C99.8145 64.592 101.135 66 102.921 66H104.479ZM102.921 64.8824C101.768 64.8824 100.932 63.9936 100.932 62.788C100.932 61.5736 101.777 60.72 102.921 60.72H104.479C105.658 60.72 106.494 61.5824 106.494 62.788C106.494 63.9936 105.658 64.8824 104.479 64.8824H102.921ZM114.051 65.8416C114.209 66 114.377 66.0792 114.561 66.0792C114.887 66.0792 115.116 65.8328 115.116 65.4104V59.5496H114.051V64.2312L109.537 59.752C109.369 59.5848 109.229 59.5232 109.061 59.5232C108.709 59.5232 108.489 59.7784 108.489 60.192V66H109.554V61.3184L114.051 65.8416ZM117.378 66V59.6024H116.26V66H117.378ZM124.933 66V64.8824H121.466C120.313 64.8824 119.477 63.9936 119.477 62.788C119.477 61.5736 120.322 60.72 121.466 60.72H124.933V59.6024H121.466C119.68 59.6024 118.36 60.852 118.36 62.7352C118.36 64.592 119.68 66 121.466 66H124.933ZM133.858 66L130.17 59.8752C130.038 59.6552 129.88 59.5144 129.634 59.5144C129.387 59.5144 129.22 59.6552 129.088 59.8752L125.41 66H126.686L129.59 61.0896L131.015 63.4832H129.053L128.525 64.3896H131.552L132.511 66H133.858ZM139.993 65.2344V63.1136H142.096V62.3744H139.993V60.2624H139.245V62.3744H137.133V63.1136H139.245V65.2344H139.993ZM146.904 66V60.72H151.225V59.6024H145.795V66H146.904ZM150.961 63.3512V62.3744H147.723V63.3512H150.961ZM159.166 66L155.479 59.8752C155.347 59.6552 155.189 59.5144 154.942 59.5144C154.696 59.5144 154.529 59.6552 154.397 59.8752L150.718 66H151.994L154.898 61.0896L156.324 63.4832H154.361L153.833 64.3896H156.861L157.82 66H159.166ZM164.66 66C165.909 66 166.719 65.2344 166.719 64.064C166.719 63.316 166.296 62.8056 165.716 62.6208C166.191 62.4712 166.604 62.0664 166.604 61.2568C166.604 60.1656 165.777 59.6024 164.528 59.6024H159.846V66H164.66ZM164.616 63.2192C165.24 63.2192 165.584 63.5184 165.584 64.0464C165.584 64.6712 165.003 64.8912 164.202 64.8912H160.964V60.72H164.105C164.932 60.72 165.469 60.8256 165.469 61.5032C165.469 62.0576 165.17 62.2776 164.536 62.2776H161.773V63.2192H164.616ZM168.494 65.472C168.494 65.1376 168.23 64.8736 167.887 64.8736C167.552 64.8736 167.297 65.1376 167.297 65.472C167.297 65.8064 167.552 66.0704 167.887 66.0704C168.23 66.0704 168.494 65.8064 168.494 65.472ZM175.892 66C177.696 66 179.007 64.592 179.007 62.7352C179.007 60.8784 177.696 59.6024 175.892 59.6024H172.187V66H175.892ZM173.296 64.8824V60.72H175.892C177.044 60.72 177.889 61.5824 177.889 62.788C177.889 63.9936 177.044 64.8824 175.892 64.8824H173.296ZM181.1 66V59.6024H179.983V66H181.1ZM189.052 66V62.2776H185.039V63.2192H187.926V64.8824H185.189C184.036 64.8824 183.2 63.9936 183.2 62.788C183.2 61.5736 184.045 60.72 185.189 60.72H188.656V59.6024H185.189C183.402 59.6024 182.082 60.852 182.082 62.7352C182.082 64.592 183.402 66 185.189 66H189.052ZM191.258 66V59.6024H190.141V66H191.258ZM195.593 66V60.72H198.022V59.6024H192.047V60.72H194.475V66H195.593ZM205.572 66L201.885 59.8752C201.753 59.6552 201.595 59.5144 201.348 59.5144C201.102 59.5144 200.935 59.6552 200.803 59.8752L197.124 66H198.4L201.304 61.0896L202.73 63.4832H200.768L200.24 64.3896H203.267L204.226 66H205.572ZM211.682 66V64.8824H207.379V59.6024H206.261V66H211.682ZM217.93 65.2344V63.1136H220.033V62.3744H217.93V60.2624H217.182V62.3744H215.07V63.1136H217.182V65.2344H217.93ZM228.537 66C229.787 66 230.596 65.2344 230.596 64.064C230.596 63.316 230.174 62.8056 229.593 62.6208C230.068 62.4712 230.482 62.0664 230.482 61.2568C230.482 60.1656 229.655 59.6024 228.405 59.6024H223.723V66H228.537ZM228.493 63.2192C229.118 63.2192 229.461 63.5184 229.461 64.0464C229.461 64.6712 228.88 64.8912 228.079 64.8912H224.841V60.72H227.983C228.81 60.72 229.347 60.8256 229.347 61.5032C229.347 62.0576 229.047 62.2776 228.414 62.2776H225.651V63.2192H228.493ZM232.749 66V59.6024H231.631V66H232.749ZM238.395 66C240.217 66 241.528 64.592 241.528 62.7352C241.528 60.8784 240.243 59.6024 238.395 59.6024H236.837C235.051 59.6024 233.731 60.852 233.731 62.7352C233.731 64.592 235.051 66 236.837 66H238.395ZM236.837 64.8824C235.685 64.8824 234.849 63.9936 234.849 62.788C234.849 61.5736 235.693 60.72 236.837 60.72H238.395C239.574 60.72 240.41 61.5824 240.41 62.788C240.41 63.9936 239.574 64.8824 238.395 64.8824H236.837ZM251.153 66L249.516 59.9808C249.428 59.6728 249.252 59.5232 248.979 59.5232C248.741 59.5232 248.548 59.6552 248.442 59.9016L246.471 64.4248L244.5 59.9016C244.394 59.6552 244.174 59.5232 243.937 59.5232C243.637 59.5232 243.461 59.6728 243.382 59.9808L241.737 66H242.837L244.06 61.5032L245.864 65.6656C245.978 65.9384 246.172 66.088 246.436 66.088C246.709 66.088 246.885 65.9384 247.008 65.6656L248.821 61.5032L250.044 66H251.153ZM259.911 66L256.223 59.8752C256.091 59.6552 255.933 59.5144 255.687 59.5144C255.44 59.5144 255.273 59.6552 255.141 59.8752L251.463 66H252.739L255.643 61.0896L257.068 63.4832H255.106L254.578 64.3896H257.605L258.564 66H259.911ZM262.633 66V60.72H265.062V59.6024H259.087V60.72H261.515V66H262.633ZM271.519 66V64.8824H266.907V60.72H271.51V59.6024H265.799V66H271.519ZM271.272 63.2192V62.2776H267.726V63.2192H271.272ZM280 66L278.073 64.0552C278.9 63.7384 279.393 62.9904 279.393 61.9344C279.393 60.5088 278.53 59.6024 277.069 59.6024H272.476V66H273.585V60.72H277.069C277.835 60.72 278.293 61.1248 278.293 61.952C278.293 62.7792 277.87 63.2368 277.069 63.2368H274.403V64.2224H276.797L278.416 66H280ZM281.759 66V59.6024H280.641V66H281.759ZM290.943 66L287.255 59.8752C287.123 59.6552 286.965 59.5144 286.719 59.5144C286.472 59.5144 286.305 59.6552 286.173 59.8752L282.495 66H283.771L286.675 61.0896L288.1 63.4832H286.138L285.61 64.3896H288.637L289.596 66H290.943ZM297.052 66V64.8824H292.749V59.6024H291.631V66H297.052ZM303.573 66V64.8824H298.962V60.72H303.564V59.6024H297.853V66H303.573ZM303.327 63.2192V62.2776H299.78V63.2192H303.327ZM309.327 66C310.664 66 311.315 65.1992 311.315 64.1256C311.315 62.8848 310.62 62.2776 309.327 62.2776H306.396C305.903 62.2776 305.595 61.9872 305.595 61.5032C305.595 61.0192 305.895 60.72 306.405 60.72H310.999V59.6024H306.405C305.129 59.6024 304.434 60.368 304.434 61.3976C304.434 62.4536 305.182 63.2192 306.387 63.2192H309.327C309.925 63.2192 310.259 63.5008 310.259 64.0464C310.259 64.548 309.925 64.8824 309.327 64.8824H304.531V66H309.327Z" fill="black"/>
</svg>
