<?xml version="1.0" encoding="utf-8"?>
<!-- Generator: Adobe Illustrator 24.0.2, SVG Export Plug-In . SVG Version: 6.00 Build 0)  -->
<svg version="1.1" id="Capa_1" xmlns="http://www.w3.org/2000/svg" xmlns:xlink="http://www.w3.org/1999/xlink" x="0px" y="0px"
	 viewBox="0 0 908.26 233.73" style="enable-background:new 0 0 908.26 233.73;" xml:space="preserve">
<style type="text/css">
	.st0{fill-rule:evenodd;clip-rule:evenodd;}
	.st1{fill-rule:evenodd;clip-rule:evenodd;fill:#E30613;}
	.st2{fill-rule:evenodd;clip-rule:evenodd;fill:#B3B2B2;}
	.st3{fill:#E30613;}
	.st4{fill:#18618A;}
	.st5{fill-rule:evenodd;clip-rule:evenodd;fill:#18618A;}
	.st6{fill-rule:evenodd;clip-rule:evenodd;fill:#108E5B;}
</style>
<g>
	<path class="st0" d="M60.28,96.83c0.11,4.32-0.57,8.79-2.07,13.41c-1.5,4.62-3.89,8.54-7.19,11.77c-3.29,3.23-7.57,4.91-12.82,5.05
		c-5.52-0.12-10.01-1.7-13.47-4.76c-3.46-3.05-6.01-6.84-7.62-11.37c-1.62-4.53-2.42-9.07-2.4-13.63
		c-0.01-5.06,0.86-9.86,2.58-14.41c1.72-4.55,4.34-8.27,7.83-11.17c3.5-2.9,7.91-4.4,13.23-4.49c5.31,0.1,9.59,1.59,12.86,4.47
		c3.27,2.88,5.62,6.56,7.08,11.05C59.73,87.24,60.4,91.93,60.28,96.83z M0,169.93h14.7v-43.81h0.31c2.21,3.75,5.46,6.8,9.73,9.16
		c4.27,2.36,9.91,3.58,16.89,3.65c8.02-0.13,14.55-2.24,19.6-6.33c5.06-4.09,8.77-9.4,11.14-15.93c2.38-6.53,3.56-13.51,3.53-20.95
		c0-7.25-1.26-13.92-3.78-20c-2.53-6.08-6.33-10.97-11.43-14.67c-5.1-3.7-11.51-5.6-19.23-5.7c-7.05,0.17-12.84,1.61-17.37,4.34
		c-4.53,2.72-7.77,5.65-9.73,8.79h-0.31V57.23H0V169.93z"/>
	<path class="st0" d="M113.95,137.06h14.69v-36.32c0.09-10.12,2.07-18.05,5.95-23.8c3.88-5.74,9.15-8.66,15.81-8.77
		c1.27-0.01,2.61,0.09,4.01,0.29c1.41,0.21,2.79,0.58,4.13,1.12V56.45c-1.5-0.32-2.96-0.58-4.38-0.78c-1.42-0.2-3.2-0.31-5.32-0.31
		c-4.33,0.07-8.36,1.41-12.11,4c-3.76,2.59-6.66,6-8.71,10.22h-0.32V57.23h-13.76V137.06z"/>
	<path class="st0" d="M203.41,97.14c0.02-5.15,1.01-9.99,2.98-14.51c1.98-4.52,4.82-8.19,8.55-11.02c3.73-2.83,8.24-4.29,13.53-4.38
		c5.24,0.09,9.71,1.55,13.42,4.38c3.7,2.83,6.55,6.51,8.51,11.02c1.97,4.52,2.96,9.35,2.98,14.51c0.01,4.85-0.87,9.55-2.63,14.09
		c-1.77,4.53-4.48,8.28-8.16,11.23c-3.68,2.96-8.38,4.48-14.12,4.59c-5.78-0.11-10.52-1.64-14.23-4.59c-3.7-2.95-6.43-6.7-8.2-11.23
		C204.27,106.69,203.4,102,203.41,97.14z M187.77,97.14c0.05,7.71,1.79,14.71,5.19,21c3.4,6.28,8.15,11.29,14.23,15.03
		c6.09,3.75,13.18,5.66,21.27,5.76c8.05-0.1,15.1-2.01,21.16-5.76c6.07-3.74,10.79-8.75,14.2-15.03c3.4-6.29,5.13-13.28,5.18-21
		c-0.17-12.36-3.89-22.36-11.17-30c-7.27-7.64-17.06-11.56-29.37-11.79c-12.39,0.22-22.22,4.15-29.51,11.79
		C191.67,74.78,187.94,84.78,187.77,97.14z"/>
	<path class="st1" d="M349.45,57.23h-21.14V34.06l-14.7,4.7v18.47h-18.01v11.87h18.01v46.67c0.08,7.95,2.27,13.81,6.59,17.56
		c4.32,3.76,10.31,5.63,17.97,5.6c2.37-0.03,4.64-0.28,6.79-0.74c2.15-0.47,4.07-0.95,5.73-1.45v-12.5
		c-1.09,0.73-2.47,1.37-4.13,1.93c-1.66,0.56-3.62,0.85-5.89,0.88c-3.46-0.02-6.36-1.23-8.71-3.67c-2.35-2.42-3.57-5.95-3.66-10.58
		v-43.7h21.14V57.23z"/>
	<path class="st1" d="M396.51,89.48c0.34-3.53,1.29-6.99,2.85-10.36c1.55-3.38,3.85-6.19,6.89-8.42c3.03-2.23,6.94-3.39,11.72-3.47
		c6.38,0.16,11.28,2.35,14.71,6.54c3.42,4.2,5.15,9.44,5.19,15.71H396.51z M447.4,119.06c-1.99,1.64-5.32,3.35-9.99,5.12
		c-4.67,1.77-9.53,2.74-14.58,2.88c-7.2-0.12-13.33-2.59-18.39-7.39c-5.06-4.8-7.71-11.22-7.93-19.25h56.98
		c0.06-8.64-1.01-16.34-3.21-23.09c-2.2-6.76-5.88-12.09-11.04-15.99c-5.16-3.91-12.15-5.9-20.96-5.98
		c-11.43,0.2-20.48,3.98-27.16,11.32c-6.68,7.35-10.1,17.03-10.25,29.06c-0.05,13.17,3.29,23.62,10.04,31.34
		c6.74,7.73,17.17,11.68,31.29,11.86c6.46-0.09,11.6-0.7,15.43-1.82c3.83-1.12,7.09-2.24,9.78-3.34V119.06z"/>
	<path class="st0" d="M508.96,22.79h-16.58v16.57h16.58V22.79z M493.32,137.06h14.69V57.23h-14.69V137.06z"/>
	<path class="st0" d="M553.2,137.06h14.7V100.1c-0.04-9.86,1.91-17.77,5.85-23.72c3.94-5.95,10.08-9,18.43-9.16
		c6.32,0.37,10.75,2.89,13.27,7.55c2.53,4.67,3.74,11.65,3.64,20.93v41.34h14.7V89.62c0.04-10.81-2.36-19.2-7.19-25.17
		c-4.84-5.97-12.41-9.01-22.7-9.09c-5.68,0.03-10.89,1.33-15.61,3.87c-4.72,2.54-8.24,6.09-10.55,10.67h-0.31V57.23H553.2V137.06z"
		/>
	<path class="st2" d="M9.42,215.02H5.91v-3.84l-2.44,0.77v3.07H0.48V217h2.99v7.75c0.01,1.32,0.38,2.29,1.1,2.91
		c0.71,0.63,1.71,0.94,2.98,0.94c0.39-0.01,0.77-0.05,1.13-0.13c0.35-0.08,0.67-0.15,0.95-0.24v-2.07
		c-0.18,0.12-0.41,0.23-0.69,0.33c-0.27,0.09-0.6,0.13-0.98,0.14c-0.57,0-1.06-0.21-1.45-0.61c-0.39-0.4-0.59-0.98-0.61-1.76V217
		h3.51V215.02z"/>
	<path class="st2" d="M14.04,220.38c0.06-0.59,0.22-1.16,0.47-1.72c0.26-0.56,0.64-1.03,1.14-1.4c0.51-0.37,1.16-0.56,1.95-0.58
		c1.06,0.03,1.88,0.39,2.44,1.09c0.57,0.7,0.86,1.57,0.86,2.61H14.04z M22.49,225.29c-0.33,0.27-0.88,0.56-1.66,0.85
		c-0.77,0.29-1.58,0.46-2.42,0.48c-1.19-0.02-2.21-0.44-3.05-1.22c-0.85-0.81-1.28-1.87-1.32-3.2h9.46
		c0.01-1.44-0.17-2.72-0.53-3.84c-0.37-1.12-0.98-2.01-1.83-2.65c-0.86-0.65-2.02-0.98-3.48-1c-1.9,0.04-3.4,0.67-4.51,1.89
		c-1.11,1.22-1.67,2.83-1.7,4.82c-0.01,2.19,0.55,3.93,1.67,5.2c1.12,1.29,2.85,1.94,5.19,1.97c1.07-0.02,1.93-0.12,2.56-0.31
		c0.63-0.19,1.17-0.37,1.62-0.56V225.29z"/>
	<path class="st2" d="M35.24,215.23c-0.37-0.14-0.82-0.27-1.37-0.36c-0.55-0.11-1.07-0.15-1.59-0.16c-2.06,0.04-3.69,0.7-4.9,1.96
		c-1.21,1.27-1.83,2.93-1.85,4.99c0.01,1.28,0.29,2.44,0.86,3.48c0.56,1.05,1.35,1.88,2.36,2.5c1.01,0.62,2.19,0.94,3.53,0.96
		c0.45,0,0.95-0.03,1.49-0.1c0.53-0.08,1.06-0.22,1.58-0.45l-0.19-2.18c-0.39,0.24-0.81,0.44-1.28,0.56
		c-0.47,0.13-0.92,0.2-1.34,0.2c-1.05-0.02-1.89-0.27-2.55-0.76c-0.65-0.49-1.12-1.11-1.42-1.87c-0.31-0.75-0.45-1.54-0.45-2.33
		c0-0.86,0.17-1.66,0.5-2.41c0.33-0.75,0.81-1.36,1.45-1.83c0.64-0.47,1.41-0.71,2.32-0.73c0.39,0,0.82,0.05,1.27,0.14
		c0.45,0.1,0.92,0.24,1.39,0.44L35.24,215.23z"/>
	<path class="st2" d="M38.01,228.28h2.44v-6.13c-0.01-1.64,0.32-2.96,0.98-3.94c0.65-0.99,1.67-1.49,3.05-1.53
		c1.05,0.07,1.78,0.48,2.2,1.25c0.42,0.77,0.62,1.94,0.61,3.48v6.86h2.44v-7.88c0.01-1.8-0.39-3.19-1.19-4.18
		c-0.81-0.99-2.06-1.49-3.77-1.52c-0.94,0.01-1.81,0.23-2.59,0.64c-0.79,0.43-1.37,1.01-1.76,1.78h-0.05v-2.11h-2.36V228.28z"/>
	<path class="st2" d="M55.45,221.66c0.01-0.86,0.17-1.66,0.5-2.41c0.33-0.75,0.8-1.36,1.42-1.83c0.62-0.47,1.37-0.71,2.25-0.73
		c0.87,0.02,1.61,0.26,2.23,0.73c0.61,0.47,1.09,1.08,1.41,1.83c0.32,0.75,0.49,1.55,0.49,2.41c0,0.8-0.14,1.58-0.44,2.33
		c-0.29,0.75-0.74,1.37-1.35,1.87c-0.61,0.49-1.4,0.74-2.35,0.76c-0.96-0.02-1.75-0.27-2.36-0.76c-0.61-0.49-1.07-1.11-1.36-1.87
		C55.59,223.24,55.45,222.45,55.45,221.66z M52.85,221.66c0.01,1.28,0.3,2.44,0.86,3.48c0.57,1.05,1.35,1.88,2.36,2.5
		c1.01,0.62,2.19,0.94,3.53,0.96c1.34-0.02,2.51-0.34,3.51-0.96c1.01-0.62,1.79-1.45,2.36-2.5c0.57-1.04,0.85-2.2,0.86-3.48
		c-0.03-2.05-0.64-3.72-1.85-4.99c-1.21-1.27-2.83-1.92-4.88-1.96c-2.06,0.04-3.69,0.7-4.9,1.96
		C53.5,217.94,52.88,219.61,52.85,221.66z"/>
	<rect x="69.77" y="208.78" class="st2" width="2.44" height="19.49"/>
	<path class="st2" d="M78.23,221.66c0.01-0.86,0.17-1.66,0.5-2.41c0.33-0.75,0.8-1.36,1.42-1.83c0.62-0.47,1.36-0.71,2.24-0.73
		c0.87,0.02,1.61,0.26,2.23,0.73c0.62,0.47,1.09,1.08,1.41,1.83c0.32,0.75,0.49,1.55,0.49,2.41c0,0.8-0.14,1.58-0.44,2.33
		c-0.29,0.75-0.74,1.37-1.35,1.87c-0.61,0.49-1.39,0.74-2.35,0.76c-0.96-0.02-1.75-0.27-2.36-0.76c-0.61-0.49-1.07-1.11-1.36-1.87
		C78.38,223.24,78.23,222.45,78.23,221.66z M75.64,221.66c0.01,1.28,0.29,2.44,0.86,3.48c0.57,1.05,1.35,1.88,2.37,2.5
		c1.01,0.62,2.19,0.94,3.53,0.96c1.34-0.02,2.51-0.34,3.51-0.96c1.01-0.62,1.79-1.45,2.36-2.5c0.57-1.04,0.85-2.2,0.86-3.48
		c-0.03-2.05-0.64-3.72-1.85-4.99c-1.21-1.27-2.83-1.92-4.88-1.96c-2.06,0.04-3.69,0.7-4.9,1.96
		C76.29,217.94,75.67,219.61,75.64,221.66z"/>
	<path class="st2" d="M97.66,226.3c-1.16-0.03-2.06-0.5-2.71-1.4c-0.65-0.91-0.98-2-0.99-3.28c0-0.77,0.14-1.53,0.41-2.28
		c0.27-0.75,0.68-1.39,1.23-1.88c0.55-0.5,1.23-0.76,2.06-0.79c1.3,0.04,2.27,0.56,2.91,1.53c0.64,0.98,0.96,2.18,0.96,3.6
		c-0.02,1.27-0.38,2.32-1.08,3.17C99.75,225.84,98.82,226.27,97.66,226.3z M103.97,215.02h-2.26V217h-0.05
		c-0.35-0.72-0.88-1.28-1.58-1.68c-0.7-0.39-1.63-0.6-2.79-0.61c-1.34,0.03-2.44,0.39-3.32,1.08c-0.88,0.69-1.53,1.56-1.96,2.63
		c-0.43,1.07-0.64,2.18-0.64,3.34c0,1.17,0.21,2.24,0.62,3.22c0.42,0.98,1.05,1.78,1.89,2.38c0.83,0.6,1.89,0.92,3.15,0.93
		c0.86,0,1.69-0.16,2.47-0.51c0.78-0.34,1.44-0.85,1.97-1.54h0.05v1.3c-0.01,1.42-0.37,2.53-1.09,3.33
		c-0.71,0.8-1.72,1.21-3.02,1.22c-0.87,0.01-1.66-0.09-2.36-0.27c-0.71-0.19-1.52-0.49-2.42-0.92l-0.26,2.26
		c1.05,0.35,1.93,0.6,2.65,0.72c0.73,0.13,1.43,0.2,2.11,0.19c2.37-0.01,4.1-0.57,5.2-1.66c1.1-1.09,1.65-2.65,1.63-4.68V215.02z"/>
	<path class="st2" d="M108.29,228.28h2.44v-13.25h-2.44V228.28z M107.8,213.18h1.74l3.4-3.74h-2.84L107.8,213.18z"/>
	<path class="st2" d="M122.92,223.13c-0.01,1.01-0.32,1.84-0.94,2.49c-0.62,0.64-1.54,0.98-2.75,1c-0.59,0-1.15-0.19-1.66-0.56
		c-0.51-0.36-0.78-0.91-0.81-1.6c0.03-0.77,0.33-1.33,0.9-1.7c0.57-0.37,1.21-0.6,1.92-0.71c0.71-0.1,1.31-0.15,1.78-0.14
		c0.26,0,0.52,0.01,0.78,0.03c0.26,0.01,0.52,0.02,0.78,0.02V223.13z M115.79,218.04c0.51-0.42,1.1-0.74,1.77-0.98
		c0.68-0.24,1.37-0.36,2.07-0.37c1.21,0.01,2.06,0.29,2.56,0.87c0.5,0.58,0.74,1.45,0.72,2.6c-0.47-0.03-0.91-0.04-1.3-0.05
		c-0.4,0-0.83,0-1.3,0c-0.87-0.01-1.78,0.12-2.72,0.39c-0.94,0.26-1.75,0.72-2.41,1.36c-0.66,0.63-1.01,1.51-1.04,2.61
		c0.02,1.43,0.47,2.49,1.36,3.14c0.88,0.67,2.05,0.99,3.5,0.99c1.11-0.04,2.01-0.27,2.68-0.72c0.67-0.44,1.15-0.87,1.43-1.31h0.05
		v1.71h2.28c-0.03-0.19-0.05-0.48-0.07-0.87c-0.02-0.4-0.03-0.98-0.03-1.72v-5.49c0.02-1.81-0.4-3.17-1.24-4.09
		c-0.85-0.93-2.2-1.39-4.09-1.4c-0.85,0.01-1.64,0.13-2.36,0.36c-0.73,0.22-1.4,0.52-2.01,0.89L115.79,218.04z"/>
	<path class="st2" d="M138.1,220.38c0.06-0.59,0.22-1.16,0.47-1.72c0.26-0.56,0.64-1.03,1.15-1.4c0.5-0.37,1.15-0.56,1.94-0.58
		c1.06,0.03,1.88,0.39,2.44,1.09c0.57,0.7,0.86,1.57,0.86,2.61H138.1z M146.55,225.29c-0.33,0.27-0.88,0.56-1.66,0.85
		c-0.77,0.29-1.58,0.46-2.42,0.48c-1.19-0.02-2.21-0.44-3.05-1.22c-0.84-0.81-1.28-1.87-1.32-3.2h9.46
		c0.01-1.44-0.17-2.72-0.53-3.84c-0.37-1.12-0.98-2.01-1.83-2.65c-0.86-0.65-2.02-0.98-3.48-1c-1.9,0.04-3.4,0.67-4.51,1.89
		c-1.11,1.22-1.67,2.83-1.7,4.82c0,2.19,0.55,3.93,1.67,5.2c1.12,1.29,2.85,1.94,5.19,1.97c1.07-0.02,1.93-0.12,2.56-0.31
		c0.63-0.19,1.17-0.37,1.62-0.56V225.29z"/>
	<path class="st2" d="M160.64,209.31h-2.75v2.75h2.75V209.31z M158.05,228.28h2.44v-13.25h-2.44V228.28z"/>
	<path class="st2" d="M164.8,228.28h2.44v-6.13c-0.01-1.64,0.32-2.96,0.97-3.94c0.65-0.99,1.67-1.49,3.06-1.53
		c1.05,0.07,1.78,0.48,2.2,1.25c0.42,0.77,0.62,1.94,0.61,3.48v6.86h2.44v-7.88c0.01-1.8-0.39-3.19-1.19-4.18
		c-0.8-0.99-2.06-1.49-3.76-1.52c-0.95,0.01-1.81,0.23-2.59,0.64c-0.79,0.43-1.37,1.01-1.76,1.78h-0.05v-2.11h-2.36V228.28z"/>
	<path class="st2" d="M180.52,228.28h2.44v-6.13c-0.01-1.64,0.32-2.96,0.98-3.94c0.65-0.99,1.67-1.49,3.05-1.53
		c1.05,0.07,1.78,0.48,2.2,1.25c0.42,0.77,0.62,1.94,0.61,3.48v6.86h2.44v-7.88c0.01-1.8-0.39-3.19-1.19-4.18
		c-0.81-0.99-2.06-1.49-3.77-1.52c-0.94,0.01-1.81,0.23-2.59,0.64c-0.79,0.43-1.37,1.01-1.76,1.78h-0.05v-2.11h-2.36V228.28z"/>
	<path class="st2" d="M197.96,221.66c0.01-0.86,0.17-1.66,0.5-2.41c0.33-0.75,0.8-1.36,1.42-1.83c0.62-0.47,1.37-0.71,2.25-0.73
		c0.87,0.02,1.61,0.26,2.23,0.73c0.62,0.47,1.09,1.08,1.41,1.83c0.33,0.75,0.49,1.55,0.5,2.41c0,0.8-0.14,1.58-0.44,2.33
		c-0.29,0.75-0.74,1.37-1.35,1.87c-0.61,0.49-1.4,0.74-2.35,0.76c-0.96-0.02-1.75-0.27-2.36-0.76c-0.62-0.49-1.07-1.11-1.36-1.87
		C198.11,223.24,197.96,222.45,197.96,221.66z M195.37,221.66c0.01,1.28,0.3,2.44,0.86,3.48c0.57,1.05,1.35,1.88,2.36,2.5
		c1.01,0.62,2.19,0.94,3.53,0.96c1.34-0.02,2.51-0.34,3.51-0.96c1.01-0.62,1.79-1.45,2.36-2.5c0.56-1.04,0.85-2.2,0.86-3.48
		c-0.03-2.05-0.65-3.72-1.85-4.99c-1.21-1.27-2.83-1.92-4.88-1.96c-2.06,0.04-3.69,0.7-4.9,1.96
		C196.02,217.94,195.39,219.61,195.37,221.66z"/>
	<polygon class="st2" points="222.61,215.02 220.16,215.02 216.5,225.84 216.45,225.84 212.86,215.02 210.18,215.02 214.94,228.28 
		217.85,228.28 	"/>
	<path class="st2" d="M232.7,223.13c-0.01,1.01-0.32,1.84-0.94,2.49c-0.62,0.64-1.54,0.98-2.75,1c-0.59,0-1.14-0.19-1.65-0.56
		c-0.51-0.36-0.78-0.91-0.82-1.6c0.03-0.77,0.33-1.33,0.9-1.7c0.57-0.37,1.21-0.6,1.92-0.71c0.71-0.1,1.31-0.15,1.78-0.14
		c0.26,0,0.52,0.01,0.78,0.03c0.26,0.01,0.52,0.02,0.79,0.02V223.13z M225.57,218.04c0.51-0.42,1.1-0.74,1.78-0.98
		c0.68-0.24,1.37-0.36,2.07-0.37c1.21,0.01,2.06,0.29,2.55,0.87c0.5,0.58,0.74,1.45,0.73,2.6c-0.47-0.03-0.91-0.04-1.3-0.05
		c-0.4,0-0.83,0-1.3,0c-0.87-0.01-1.78,0.12-2.72,0.39c-0.94,0.26-1.74,0.72-2.41,1.36c-0.66,0.63-1,1.51-1.04,2.61
		c0.03,1.43,0.48,2.49,1.36,3.14c0.88,0.67,2.05,0.99,3.5,0.99c1.11-0.04,2.01-0.27,2.68-0.72c0.68-0.44,1.15-0.87,1.43-1.31h0.05
		v1.71h2.29c-0.03-0.19-0.05-0.48-0.07-0.87c-0.02-0.4-0.03-0.98-0.03-1.72v-5.49c0.02-1.81-0.4-3.17-1.24-4.09
		c-0.84-0.93-2.2-1.39-4.09-1.4c-0.85,0.01-1.63,0.13-2.36,0.36c-0.73,0.22-1.4,0.52-2.01,0.89L225.57,218.04z"/>
	<path class="st2" d="M247.73,215.23c-0.37-0.14-0.83-0.27-1.37-0.36c-0.55-0.11-1.08-0.15-1.59-0.16c-2.05,0.04-3.69,0.7-4.9,1.96
		c-1.21,1.27-1.83,2.93-1.85,4.99c0.01,1.28,0.29,2.44,0.86,3.48c0.56,1.05,1.35,1.88,2.36,2.5c1.01,0.62,2.19,0.94,3.53,0.96
		c0.45,0,0.95-0.03,1.49-0.1c0.53-0.08,1.06-0.22,1.58-0.45l-0.19-2.18c-0.39,0.24-0.81,0.44-1.28,0.56
		c-0.47,0.13-0.92,0.2-1.34,0.2c-1.05-0.02-1.89-0.27-2.55-0.76c-0.65-0.49-1.12-1.11-1.42-1.87c-0.3-0.75-0.45-1.54-0.45-2.33
		c0-0.86,0.17-1.66,0.5-2.41c0.33-0.75,0.81-1.36,1.45-1.83c0.63-0.47,1.41-0.71,2.32-0.73c0.39,0,0.82,0.05,1.27,0.14
		c0.45,0.1,0.91,0.24,1.38,0.44L247.73,215.23z"/>
	<path class="st2" d="M253.4,209.31h-2.75v2.75h2.75V209.31z M250.81,228.28h2.44v-13.25h-2.44V228.28z"/>
	<path class="st2" d="M259.27,221.66c0-0.86,0.17-1.66,0.5-2.41c0.33-0.75,0.8-1.36,1.42-1.83c0.62-0.47,1.37-0.71,2.25-0.73
		c0.87,0.02,1.61,0.26,2.23,0.73c0.62,0.47,1.09,1.08,1.41,1.83c0.33,0.75,0.49,1.55,0.5,2.41c0,0.8-0.15,1.58-0.44,2.33
		c-0.29,0.75-0.75,1.37-1.36,1.87c-0.61,0.49-1.39,0.74-2.34,0.76c-0.96-0.02-1.75-0.27-2.36-0.76c-0.62-0.49-1.07-1.11-1.36-1.87
		C259.41,223.24,259.27,222.45,259.27,221.66z M256.68,221.66c0.01,1.28,0.29,2.44,0.86,3.48c0.57,1.05,1.35,1.88,2.36,2.5
		c1.01,0.62,2.19,0.94,3.53,0.96c1.34-0.02,2.5-0.34,3.51-0.96c1-0.62,1.79-1.45,2.36-2.5c0.56-1.04,0.85-2.2,0.86-3.48
		c-0.03-2.05-0.65-3.72-1.85-4.99c-1.21-1.27-2.84-1.92-4.88-1.96c-2.06,0.04-3.69,0.7-4.9,1.96
		C257.32,217.94,256.7,219.61,256.68,221.66z M261.72,213.18h1.74l3.4-3.74h-2.83L261.72,213.18z"/>
	<path class="st2" d="M273.28,228.28h2.44v-6.13c-0.01-1.64,0.32-2.96,0.97-3.94c0.65-0.99,1.67-1.49,3.06-1.53
		c1.05,0.07,1.78,0.48,2.2,1.25c0.42,0.77,0.62,1.94,0.61,3.48v6.86h2.44v-7.88c0.01-1.8-0.39-3.19-1.19-4.18
		c-0.81-0.99-2.06-1.49-3.77-1.52c-0.94,0.01-1.81,0.23-2.59,0.64c-0.79,0.43-1.36,1.01-1.75,1.78h-0.05v-2.11h-2.37V228.28z"/>
	<path class="st2" d="M306.08,221.6c0.02,0.72-0.09,1.46-0.34,2.23c-0.25,0.76-0.64,1.42-1.19,1.95c-0.55,0.53-1.25,0.82-2.13,0.84
		c-0.92-0.02-1.66-0.28-2.24-0.79c-0.57-0.51-1-1.15-1.27-1.9c-0.27-0.74-0.4-1.51-0.4-2.26c0-0.84,0.14-1.64,0.43-2.39
		c0.29-0.75,0.73-1.37,1.3-1.85c0.58-0.48,1.31-0.73,2.2-0.75c0.88,0.02,1.59,0.27,2.13,0.75c0.54,0.47,0.93,1.08,1.17,1.83
		C305.99,220.01,306.1,220.78,306.08,221.6z M296.07,233.73h2.44v-7.28h0.05c0.37,0.63,0.91,1.13,1.61,1.53
		c0.71,0.39,1.65,0.59,2.81,0.61c1.33-0.02,2.42-0.37,3.26-1.06c0.83-0.68,1.46-1.56,1.85-2.64c0.39-1.09,0.59-2.25,0.58-3.48
		c0-1.2-0.21-2.31-0.63-3.32c-0.42-1.01-1.05-1.82-1.9-2.44c-0.85-0.61-1.91-0.93-3.19-0.95c-1.17,0.03-2.13,0.27-2.89,0.73
		c-0.75,0.45-1.29,0.94-1.61,1.46h-0.05v-1.88h-2.34V233.73z"/>
	<path class="st2" d="M319.68,223.13c-0.01,1.01-0.32,1.84-0.94,2.49c-0.63,0.64-1.54,0.98-2.75,1c-0.59,0-1.15-0.19-1.66-0.56
		c-0.51-0.36-0.78-0.91-0.81-1.6c0.03-0.77,0.33-1.33,0.89-1.7c0.57-0.37,1.21-0.6,1.93-0.71c0.71-0.1,1.3-0.15,1.78-0.14
		c0.26,0,0.52,0.01,0.78,0.03c0.26,0.01,0.52,0.02,0.78,0.02V223.13z M312.56,218.04c0.5-0.42,1.1-0.74,1.77-0.98
		c0.68-0.24,1.37-0.36,2.07-0.37c1.21,0.01,2.06,0.29,2.55,0.87c0.5,0.58,0.74,1.45,0.73,2.6c-0.47-0.03-0.91-0.04-1.3-0.05
		c-0.39,0-0.83,0-1.3,0c-0.87-0.01-1.78,0.12-2.72,0.39c-0.94,0.26-1.75,0.72-2.41,1.36c-0.67,0.63-1.01,1.51-1.04,2.61
		c0.02,1.43,0.47,2.49,1.35,3.14c0.88,0.67,2.05,0.99,3.5,0.99c1.12-0.04,2.01-0.27,2.68-0.72c0.67-0.44,1.15-0.87,1.43-1.31h0.05
		v1.71h2.29c-0.03-0.19-0.05-0.48-0.07-0.87c-0.02-0.4-0.03-0.98-0.03-1.72v-5.49c0.02-1.81-0.4-3.17-1.24-4.09
		c-0.85-0.93-2.2-1.39-4.09-1.4c-0.84,0.01-1.63,0.13-2.36,0.36c-0.73,0.22-1.4,0.52-2.01,0.89L312.56,218.04z"/>
	<path class="st2" d="M326.08,228.28h2.44v-6.03c0.01-1.68,0.34-3,0.99-3.95c0.64-0.95,1.52-1.44,2.62-1.45
		c0.21,0,0.43,0.01,0.67,0.04c0.23,0.03,0.46,0.1,0.69,0.19v-2.18c-0.25-0.05-0.49-0.1-0.73-0.13c-0.23-0.03-0.53-0.04-0.88-0.05
		c-0.71,0.02-1.39,0.24-2.01,0.68c-0.62,0.43-1.11,0.99-1.45,1.69h-0.05v-2.05h-2.29V228.28z"/>
	<path class="st2" d="M343.92,223.13c-0.01,1.01-0.32,1.84-0.94,2.49c-0.62,0.64-1.54,0.98-2.75,1c-0.59,0-1.15-0.19-1.66-0.56
		c-0.51-0.36-0.78-0.91-0.82-1.6c0.04-0.77,0.34-1.33,0.9-1.7c0.57-0.37,1.21-0.6,1.93-0.71c0.71-0.1,1.31-0.15,1.78-0.14
		c0.26,0,0.52,0.01,0.79,0.03c0.26,0.01,0.52,0.02,0.78,0.02V223.13z M336.79,218.04c0.5-0.42,1.1-0.74,1.77-0.98
		c0.68-0.24,1.37-0.36,2.07-0.37c1.21,0.01,2.06,0.29,2.55,0.87c0.5,0.58,0.74,1.45,0.73,2.6c-0.47-0.03-0.91-0.04-1.3-0.05
		c-0.4,0-0.83,0-1.3,0c-0.87-0.01-1.78,0.12-2.72,0.39c-0.94,0.26-1.75,0.72-2.41,1.36c-0.66,0.63-1.01,1.51-1.04,2.61
		c0.02,1.43,0.47,2.49,1.36,3.14c0.88,0.67,2.05,0.99,3.5,0.99c1.12-0.04,2.01-0.27,2.68-0.72c0.67-0.44,1.15-0.87,1.43-1.31h0.05
		v1.71h2.29c-0.03-0.19-0.05-0.48-0.07-0.87c-0.02-0.4-0.03-0.98-0.03-1.72v-5.49c0.02-1.81-0.4-3.17-1.24-4.09
		c-0.85-0.93-2.2-1.39-4.09-1.4c-0.85,0.01-1.63,0.13-2.36,0.36c-0.73,0.22-1.4,0.52-2.01,0.89L336.79,218.04z"/>
	<path class="st2" d="M359.1,220.38c0.05-0.59,0.22-1.16,0.47-1.72c0.26-0.56,0.64-1.03,1.14-1.4c0.51-0.37,1.16-0.56,1.95-0.58
		c1.06,0.03,1.88,0.39,2.44,1.09c0.57,0.7,0.86,1.57,0.86,2.61H359.1z M367.55,225.29c-0.33,0.27-0.88,0.56-1.66,0.85
		c-0.77,0.29-1.58,0.46-2.42,0.48c-1.19-0.02-2.21-0.44-3.05-1.22c-0.85-0.81-1.28-1.87-1.32-3.2h9.46
		c0.01-1.44-0.17-2.72-0.53-3.84c-0.37-1.12-0.98-2.01-1.83-2.65c-0.86-0.65-2.02-0.98-3.48-1c-1.9,0.04-3.4,0.67-4.51,1.89
		c-1.11,1.22-1.67,2.83-1.7,4.82c-0.01,2.19,0.55,3.93,1.66,5.2c1.12,1.29,2.85,1.94,5.2,1.97c1.07-0.02,1.93-0.12,2.56-0.31
		c0.63-0.19,1.17-0.37,1.62-0.56V225.29z"/>
	<rect x="371.98" y="208.78" class="st2" width="2.44" height="19.49"/>
	<path class="st2" d="M387.5,221.6c-0.02-0.83,0.09-1.6,0.33-2.36c0.24-0.74,0.63-1.35,1.17-1.82c0.55-0.48,1.25-0.72,2.14-0.74
		c0.88,0.02,1.61,0.27,2.19,0.75c0.58,0.48,1.02,1.1,1.3,1.85c0.29,0.75,0.43,1.55,0.43,2.39c0,0.75-0.13,1.52-0.4,2.26
		c-0.27,0.75-0.69,1.39-1.26,1.9c-0.58,0.5-1.33,0.76-2.24,0.79c-0.88-0.02-1.59-0.31-2.13-0.84c-0.55-0.53-0.94-1.19-1.19-1.95
		C387.6,223.06,387.49,222.32,387.5,221.6z M395.18,228.28h2.33v-19.49h-2.44v8.06h-0.05c-0.37-0.62-0.91-1.13-1.61-1.53
		c-0.71-0.39-1.64-0.59-2.79-0.61c-1.28,0.02-2.35,0.34-3.19,0.95c-0.85,0.62-1.48,1.43-1.89,2.44c-0.42,1-0.63,2.12-0.63,3.32
		c-0.01,1.23,0.19,2.38,0.58,3.47c0.39,1.08,1.01,1.96,1.85,2.65c0.84,0.68,1.93,1.04,3.26,1.06c1.18-0.03,2.15-0.27,2.9-0.72
		c0.76-0.46,1.3-0.94,1.62-1.46h0.05V228.28z"/>
	<path class="st2" d="M404.43,209.31h-2.75v2.75h2.75V209.31z M401.83,228.28h2.44v-13.25h-2.44V228.28z"/>
	<path class="st2" d="M407.47,227.86c0.56,0.29,1.15,0.49,1.77,0.59c0.62,0.1,1.24,0.14,1.86,0.14c0.81,0,1.55-0.15,2.25-0.45
		c0.7-0.29,1.27-0.74,1.7-1.35c0.44-0.61,0.66-1.4,0.68-2.33c-0.03-1.04-0.33-1.82-0.9-2.37c-0.57-0.55-1.23-0.97-1.97-1.29
		c-0.75-0.32-1.41-0.64-1.97-0.99c-0.57-0.36-0.87-0.86-0.9-1.52c0.02-0.55,0.26-0.95,0.7-1.21c0.45-0.27,1-0.4,1.64-0.4
		c0.32,0.01,0.75,0.08,1.29,0.22c0.54,0.13,0.97,0.28,1.28,0.46l0.21-2.13c-0.47-0.14-0.96-0.27-1.45-0.36
		c-0.49-0.11-1.02-0.15-1.59-0.16c-1.34,0-2.45,0.34-3.32,1.01c-0.87,0.67-1.33,1.69-1.36,3.08c0.03,0.91,0.33,1.63,0.9,2.15
		c0.57,0.52,1.23,0.96,1.97,1.3c0.75,0.34,1.41,0.69,1.98,1.05c0.57,0.37,0.87,0.84,0.9,1.43c-0.04,0.7-0.31,1.2-0.83,1.48
		c-0.52,0.28-1.07,0.43-1.66,0.41c-0.38,0-0.85-0.08-1.42-0.24c-0.57-0.15-1.11-0.38-1.61-0.7L407.47,227.86z"/>
	<path class="st2" d="M420.25,220.38c0.05-0.59,0.21-1.16,0.47-1.72c0.26-0.56,0.64-1.03,1.14-1.4c0.51-0.37,1.15-0.56,1.95-0.58
		c1.06,0.03,1.87,0.39,2.44,1.09c0.57,0.7,0.86,1.57,0.86,2.61H420.25z M428.7,225.29c-0.33,0.27-0.88,0.56-1.66,0.85
		c-0.77,0.29-1.58,0.46-2.42,0.48c-1.19-0.02-2.21-0.44-3.05-1.22c-0.84-0.81-1.28-1.87-1.31-3.2h9.46
		c0.01-1.44-0.17-2.72-0.53-3.84c-0.37-1.12-0.98-2.01-1.84-2.65c-0.86-0.65-2.01-0.98-3.47-1c-1.9,0.04-3.4,0.67-4.51,1.89
		c-1.11,1.22-1.67,2.83-1.7,4.82c-0.01,2.19,0.55,3.93,1.66,5.2c1.12,1.29,2.85,1.94,5.2,1.97c1.07-0.02,1.93-0.12,2.56-0.31
		c0.64-0.19,1.18-0.37,1.63-0.56V225.29z"/>
	<path class="st2" d="M432.82,228.28h2.44v-6.13c0-1.64,0.32-2.96,0.97-3.94c0.65-0.99,1.67-1.49,3.06-1.53
		c1.05,0.07,1.78,0.48,2.2,1.25c0.42,0.77,0.62,1.94,0.61,3.48v6.86h2.44v-7.88c0.01-1.8-0.39-3.19-1.19-4.18
		c-0.8-0.99-2.06-1.49-3.77-1.52c-0.94,0.01-1.81,0.23-2.59,0.64c-0.79,0.43-1.36,1.01-1.75,1.78h-0.05v-2.11h-2.36V228.28z
		 M435.47,213.05c0.03-0.32,0.14-0.6,0.33-0.84c0.19-0.25,0.47-0.37,0.86-0.36c0.37,0.01,0.77,0.11,1.22,0.31
		c0.45,0.19,0.91,0.38,1.39,0.58c0.48,0.2,0.94,0.29,1.4,0.32c0.58-0.02,1.05-0.19,1.39-0.51c0.34-0.32,0.59-0.7,0.75-1.15
		c0.16-0.45,0.27-0.86,0.31-1.25h-1.19c-0.04,0.32-0.15,0.6-0.33,0.84c-0.19,0.25-0.48,0.37-0.86,0.36
		c-0.37-0.01-0.77-0.11-1.22-0.29c-0.45-0.2-0.91-0.39-1.39-0.59c-0.47-0.2-0.94-0.29-1.4-0.32c-0.58,0.02-1.04,0.19-1.39,0.51
		c-0.34,0.32-0.59,0.7-0.75,1.15c-0.16,0.45-0.26,0.86-0.31,1.25H435.47z"/>
	<path class="st2" d="M450.26,221.66c0-0.86,0.16-1.66,0.5-2.41c0.33-0.75,0.8-1.36,1.42-1.83c0.62-0.47,1.36-0.71,2.25-0.73
		c0.87,0.02,1.61,0.26,2.23,0.73c0.62,0.47,1.09,1.08,1.41,1.83c0.33,0.75,0.49,1.55,0.5,2.41c0,0.8-0.15,1.58-0.44,2.33
		c-0.29,0.75-0.75,1.37-1.36,1.87c-0.61,0.49-1.39,0.74-2.34,0.76c-0.96-0.02-1.75-0.27-2.37-0.76c-0.61-0.49-1.06-1.11-1.36-1.87
		C450.4,223.24,450.25,222.45,450.26,221.66z M447.66,221.66c0.01,1.28,0.29,2.44,0.86,3.48c0.56,1.05,1.35,1.88,2.36,2.5
		c1.01,0.62,2.19,0.94,3.53,0.96c1.33-0.02,2.5-0.34,3.51-0.96c1-0.62,1.79-1.45,2.36-2.5c0.56-1.04,0.85-2.2,0.86-3.48
		c-0.03-2.05-0.65-3.72-1.85-4.99c-1.21-1.27-2.84-1.92-4.88-1.96c-2.06,0.04-3.69,0.7-4.9,1.96
		C448.31,217.94,447.69,219.61,447.66,221.66z"/>
	<path class="st2" d="M473.05,221.6c-0.02-0.83,0.09-1.6,0.33-2.36c0.24-0.74,0.63-1.35,1.17-1.82c0.54-0.48,1.25-0.72,2.14-0.74
		c0.88,0.02,1.61,0.27,2.19,0.75c0.58,0.48,1.01,1.1,1.3,1.85c0.28,0.75,0.43,1.55,0.43,2.39c0.01,0.75-0.13,1.52-0.4,2.26
		c-0.27,0.75-0.69,1.39-1.27,1.9c-0.57,0.5-1.32,0.76-2.24,0.79c-0.87-0.02-1.58-0.31-2.13-0.84c-0.55-0.53-0.95-1.19-1.19-1.95
		C473.14,223.06,473.03,222.32,473.05,221.6z M480.72,228.28h2.34v-19.49h-2.44v8.06h-0.05c-0.37-0.62-0.91-1.13-1.61-1.53
		c-0.7-0.39-1.63-0.59-2.78-0.61c-1.28,0.02-2.35,0.34-3.19,0.95c-0.85,0.62-1.48,1.43-1.9,2.44c-0.42,1-0.63,2.12-0.63,3.32
		c-0.01,1.23,0.19,2.38,0.58,3.47c0.39,1.08,1.01,1.96,1.85,2.65c0.83,0.68,1.92,1.04,3.25,1.06c1.18-0.03,2.15-0.27,2.91-0.72
		c0.75-0.46,1.29-0.94,1.62-1.46h0.05V228.28z"/>
	<path class="st2" d="M488.77,220.38c0.06-0.59,0.22-1.16,0.47-1.72c0.26-0.56,0.64-1.03,1.14-1.4c0.51-0.37,1.16-0.56,1.95-0.58
		c1.06,0.03,1.88,0.39,2.44,1.09c0.57,0.7,0.86,1.57,0.86,2.61H488.77z M497.22,225.29c-0.33,0.27-0.88,0.56-1.66,0.85
		c-0.77,0.29-1.58,0.46-2.42,0.48c-1.19-0.02-2.21-0.44-3.05-1.22c-0.84-0.81-1.28-1.87-1.32-3.2h9.46
		c0.01-1.44-0.17-2.72-0.53-3.84c-0.37-1.12-0.98-2.01-1.83-2.65c-0.86-0.65-2.02-0.98-3.48-1c-1.9,0.04-3.4,0.67-4.51,1.89
		c-1.11,1.22-1.67,2.83-1.7,4.82c-0.01,2.19,0.55,3.93,1.67,5.2c1.12,1.29,2.85,1.94,5.19,1.97c1.07-0.02,1.93-0.12,2.56-0.31
		c0.63-0.19,1.17-0.37,1.62-0.56V225.29z"/>
	<path class="st2" d="M518.41,221.6c0.02,0.72-0.09,1.46-0.34,2.23c-0.25,0.76-0.64,1.42-1.19,1.95c-0.55,0.53-1.26,0.82-2.13,0.84
		c-0.92-0.02-1.66-0.28-2.24-0.79c-0.57-0.51-1-1.15-1.27-1.9c-0.27-0.74-0.4-1.51-0.4-2.26c0-0.84,0.14-1.64,0.43-2.39
		c0.28-0.75,0.72-1.37,1.3-1.85c0.58-0.48,1.31-0.73,2.2-0.75c0.88,0.02,1.59,0.27,2.13,0.75c0.55,0.47,0.94,1.08,1.18,1.83
		C518.33,220.01,518.43,220.78,518.41,221.6z M508.41,233.73h2.44v-7.28h0.05c0.37,0.63,0.91,1.13,1.61,1.53
		c0.71,0.39,1.64,0.59,2.8,0.61c1.33-0.02,2.42-0.37,3.26-1.06c0.84-0.68,1.46-1.56,1.85-2.64c0.39-1.09,0.59-2.25,0.58-3.48
		c0-1.2-0.21-2.31-0.62-3.32c-0.42-1.01-1.05-1.82-1.9-2.44c-0.85-0.61-1.91-0.93-3.2-0.95c-1.17,0.03-2.13,0.27-2.88,0.73
		c-0.75,0.45-1.29,0.94-1.61,1.46h-0.05v-1.88h-2.33V233.73z"/>
	<path class="st2" d="M524.13,228.28h2.44v-6.03c0.02-1.68,0.34-3,0.99-3.95c0.64-0.95,1.52-1.44,2.62-1.45
		c0.21,0,0.43,0.01,0.67,0.04c0.23,0.03,0.46,0.1,0.69,0.19v-2.18c-0.25-0.05-0.49-0.1-0.73-0.13c-0.23-0.03-0.53-0.04-0.88-0.05
		c-0.71,0.02-1.39,0.24-2.01,0.68c-0.62,0.43-1.1,0.99-1.45,1.69h-0.05v-2.05h-2.29V228.28z"/>
	<path class="st2" d="M535.8,221.66c0.01-0.86,0.17-1.66,0.5-2.41c0.33-0.75,0.8-1.36,1.42-1.83c0.62-0.47,1.37-0.71,2.25-0.73
		c0.87,0.02,1.61,0.26,2.23,0.73c0.62,0.47,1.09,1.08,1.42,1.83c0.33,0.75,0.49,1.55,0.49,2.41c0,0.8-0.14,1.58-0.44,2.33
		c-0.29,0.75-0.74,1.37-1.35,1.87c-0.61,0.49-1.39,0.74-2.35,0.76c-0.96-0.02-1.75-0.27-2.36-0.76c-0.61-0.49-1.07-1.11-1.36-1.87
		C535.94,223.24,535.8,222.45,535.8,221.66z M533.2,221.66c0.01,1.28,0.3,2.44,0.86,3.48c0.57,1.05,1.36,1.88,2.37,2.5
		s2.19,0.94,3.53,0.96c1.34-0.02,2.51-0.34,3.51-0.96c1.01-0.62,1.79-1.45,2.36-2.5c0.57-1.04,0.85-2.2,0.86-3.48
		c-0.03-2.05-0.64-3.72-1.85-4.99c-1.21-1.27-2.83-1.92-4.88-1.96c-2.06,0.04-3.69,0.7-4.9,1.96
		C533.85,217.94,533.23,219.61,533.2,221.66z"/>
	<path class="st2" d="M551.53,221.6c-0.02-0.83,0.09-1.6,0.33-2.36c0.25-0.74,0.64-1.35,1.18-1.82c0.54-0.48,1.25-0.72,2.13-0.74
		c0.88,0.02,1.61,0.27,2.2,0.75c0.58,0.48,1.01,1.1,1.3,1.85c0.28,0.75,0.43,1.55,0.43,2.39c0.01,0.75-0.13,1.52-0.4,2.26
		c-0.27,0.75-0.69,1.39-1.27,1.9c-0.57,0.5-1.32,0.76-2.24,0.79c-0.87-0.02-1.58-0.31-2.13-0.84c-0.55-0.53-0.94-1.19-1.19-1.95
		C551.62,223.06,551.51,222.32,551.53,221.6z M559.2,228.28h2.33v-19.49h-2.44v8.06h-0.05c-0.37-0.62-0.91-1.13-1.61-1.53
		c-0.7-0.39-1.64-0.59-2.78-0.61c-1.28,0.02-2.35,0.34-3.2,0.95c-0.85,0.62-1.48,1.43-1.89,2.44c-0.42,1-0.63,2.12-0.63,3.32
		c-0.01,1.23,0.19,2.38,0.58,3.47c0.39,1.08,1.01,1.96,1.85,2.65c0.84,0.68,1.93,1.04,3.26,1.06c1.18-0.03,2.15-0.27,2.91-0.72
		c0.75-0.46,1.29-0.94,1.61-1.46h0.05V228.28z"/>
	<path class="st2" d="M577.26,215.02h-2.44v6.13c0.01,1.65-0.32,2.96-0.97,3.94c-0.65,0.99-1.67,1.51-3.06,1.53
		c-1.05-0.07-1.78-0.48-2.2-1.25c-0.42-0.77-0.62-1.94-0.61-3.48v-6.86h-2.44v7.88c-0.01,1.8,0.39,3.19,1.19,4.18
		c0.81,0.99,2.06,1.49,3.77,1.52c0.94-0.01,1.81-0.22,2.59-0.64c0.79-0.43,1.37-1.01,1.75-1.78h0.05v2.11h2.36V215.02z"/>
	<path class="st2" d="M589.9,215.23c-0.37-0.14-0.83-0.27-1.37-0.36c-0.55-0.11-1.07-0.15-1.59-0.16c-2.06,0.04-3.69,0.7-4.9,1.96
		c-1.21,1.27-1.83,2.93-1.86,4.99c0.01,1.28,0.3,2.44,0.86,3.48c0.57,1.05,1.35,1.88,2.36,2.5c1.01,0.62,2.19,0.94,3.53,0.96
		c0.45,0,0.94-0.03,1.48-0.1c0.54-0.08,1.06-0.22,1.58-0.45l-0.18-2.18c-0.39,0.24-0.82,0.44-1.29,0.56
		c-0.46,0.13-0.92,0.2-1.34,0.2c-1.04-0.02-1.89-0.27-2.54-0.76c-0.65-0.49-1.13-1.11-1.43-1.87c-0.3-0.75-0.45-1.54-0.45-2.33
		c0.01-0.86,0.17-1.66,0.5-2.41c0.33-0.75,0.81-1.36,1.45-1.83c0.63-0.47,1.41-0.71,2.32-0.73c0.39,0,0.81,0.05,1.27,0.14
		c0.45,0.1,0.91,0.24,1.39,0.44L589.9,215.23z"/>
	<path class="st2" d="M599.7,215.02h-3.51v-3.84l-2.44,0.77v3.07h-2.98V217h2.98v7.75c0.02,1.32,0.38,2.29,1.1,2.91
		c0.71,0.63,1.71,0.94,2.98,0.94c0.39-0.01,0.77-0.05,1.13-0.13c0.36-0.08,0.68-0.15,0.95-0.24v-2.07
		c-0.19,0.12-0.41,0.23-0.69,0.33c-0.28,0.09-0.61,0.13-0.98,0.14c-0.57,0-1.05-0.21-1.45-0.61c-0.39-0.4-0.59-0.98-0.61-1.76V217
		h3.51V215.02z"/>
	<path class="st2" d="M604.33,221.66c0-0.86,0.17-1.66,0.49-2.41c0.33-0.75,0.8-1.36,1.42-1.83c0.62-0.47,1.37-0.71,2.24-0.73
		c0.87,0.02,1.61,0.26,2.23,0.73c0.62,0.47,1.09,1.08,1.41,1.83c0.33,0.75,0.49,1.55,0.5,2.41c0,0.8-0.15,1.58-0.44,2.33
		c-0.29,0.75-0.75,1.37-1.36,1.87c-0.61,0.49-1.39,0.74-2.35,0.76c-0.96-0.02-1.75-0.27-2.36-0.76c-0.62-0.49-1.07-1.11-1.36-1.87
		C604.47,223.24,604.32,222.45,604.33,221.66z M601.73,221.66c0.01,1.28,0.29,2.44,0.86,3.48c0.56,1.05,1.35,1.88,2.36,2.5
		c1.01,0.62,2.19,0.94,3.53,0.96c1.34-0.02,2.51-0.34,3.52-0.96c1-0.62,1.79-1.45,2.36-2.5c0.56-1.04,0.85-2.2,0.86-3.48
		c-0.03-2.05-0.65-3.72-1.85-4.99c-1.21-1.27-2.84-1.92-4.88-1.96c-2.06,0.04-3.69,0.7-4.9,1.96
		C602.38,217.94,601.76,219.61,601.73,221.66z"/>
	<path class="st2" d="M617.22,227.86c0.56,0.29,1.15,0.49,1.77,0.59c0.62,0.1,1.24,0.14,1.87,0.14c0.8,0,1.55-0.15,2.25-0.45
		c0.7-0.29,1.27-0.74,1.7-1.35c0.43-0.61,0.66-1.4,0.67-2.33c-0.03-1.04-0.33-1.82-0.89-2.37c-0.57-0.55-1.23-0.97-1.97-1.29
		c-0.75-0.32-1.41-0.64-1.98-0.99c-0.57-0.36-0.87-0.86-0.89-1.52c0.02-0.55,0.25-0.95,0.7-1.21c0.45-0.27,0.99-0.4,1.64-0.4
		c0.32,0.01,0.76,0.08,1.3,0.22c0.54,0.13,0.97,0.28,1.28,0.46l0.21-2.13c-0.47-0.14-0.96-0.27-1.45-0.36
		c-0.49-0.11-1.03-0.15-1.59-0.16c-1.34,0-2.45,0.34-3.32,1.01c-0.87,0.67-1.32,1.69-1.35,3.08c0.03,0.91,0.33,1.63,0.89,2.15
		c0.57,0.52,1.23,0.96,1.98,1.3c0.74,0.34,1.4,0.69,1.97,1.05c0.57,0.37,0.87,0.84,0.89,1.43c-0.03,0.7-0.31,1.2-0.83,1.48
		c-0.52,0.28-1.07,0.43-1.67,0.41c-0.37,0-0.85-0.08-1.42-0.24c-0.57-0.15-1.11-0.38-1.61-0.7L617.22,227.86z"/>
	<path class="st2" d="M531.63,111.58c0,7.8,0,16.16,0,25.06c0,8.89,0,17.81,0,26.75c0,8.92,0,17.35,0,25.24
		c-0.01,0.14-0.07,0.27-0.17,0.38c-0.11,0.11-0.24,0.17-0.39,0.19l-8.6,0.41c-0.01,1.35-0.03,2.76-0.07,4.22
		c-0.04,1.45-0.06,2.86-0.07,4.21c2.65,0,5.45-0.02,8.42-0.07c2.97-0.04,5.84-0.07,8.63-0.07c3.07,0,6.15,0,9.23,0
		c3.09,0,5.93,0,8.51,0c0-1.35,0-2.74,0-4.17c0-1.44,0-2.86,0-4.28l-9.72-0.27c0.04-9.27,0.1-19.23,0.17-29.88
		c0.07-10.65,0.14-21.13,0.21-31.46c0.07-10.34,0.13-19.67,0.18-27.99c0-0.21-0.04-0.35-0.11-0.44c-0.07-0.09-0.17-0.13-0.32-0.13
		c-0.59,0.03-2.55,0.28-5.85,0.76c-3.3,0.47-6.91,0.99-10.82,1.54c-3.92,0.55-7.09,0.96-9.52,1.23c-0.07,1.35-0.14,2.74-0.19,4.18
		c-0.05,1.44-0.09,2.87-0.09,4.29L531.63,111.58z"/>
	<path class="st2" d="M579.29,182.71c-0.04-2.84,1.21-5.25,3.72-7.21c2.52-1.97,6.55-3,12.08-3.09c1.43,0,2.66,0.02,3.69,0.07
		c1.03,0.04,1.72,0.07,2.09,0.08c0,1.94,0,3.91,0,5.89c0,1.97,0,3.73,0,5.25c0.01,0.21-0.01,0.39-0.03,0.55
		c-0.03,0.16-0.11,0.31-0.25,0.45c-2.08,1.43-4.29,2.55-6.61,3.38c-2.31,0.83-4.48,1.25-6.5,1.27c-2.25-0.02-4.16-0.63-5.73-1.81
		c-1.57-1.18-2.38-2.74-2.45-4.67V182.71z M601.43,193c0.98,1.41,1.87,2.66,2.68,3.74c0.8,1.08,1.55,1.94,2.25,2.59
		c4.37-0.05,8.38-0.34,12.02-0.86c3.65-0.52,6.07-0.99,7.28-1.4c0.06-1.35,0.08-2.75,0.05-4.2c-0.03-1.44-0.04-2.8-0.05-4.09
		l-8.6,0.28c-0.35,0.07-0.61-0.04-0.76-0.33c-0.16-0.27-0.23-0.74-0.23-1.37c0.01-2.07,0.03-4.89,0.07-8.43s0.09-7.19,0.14-10.94
		c0.04-3.74,0.07-6.96,0.07-9.65c-0.17-7.08-2.19-12.53-6.05-16.34c-3.87-3.81-8.56-5.73-14.08-5.77
		c-6.03,0.11-11.39,1.41-16.09,3.89c-4.7,2.48-8.97,5.5-12.8,9.05c0.92,1.28,1.89,2.53,2.9,3.77c1.01,1.23,2.01,2.42,3.01,3.56
		c2.66-2.4,5.51-4.44,8.56-6.12c3.04-1.67,5.97-2.55,8.78-2.62c3.79-0.03,6.53,1.32,8.23,4.05c1.69,2.73,2.43,6.97,2.2,12.73
		c-0.71,0-1.79,0-3.24,0c-1.46,0-3.24,0-5.36,0c-6.75,0.1-12.28,1.23-16.58,3.39c-4.3,2.17-7.48,4.77-9.53,7.81
		c-2.05,3.04-3.07,5.93-3.05,8.66c0.08,2.85,1,5.39,2.78,7.63c1.78,2.24,3.96,4,6.54,5.3c2.57,1.3,5.1,1.96,7.57,2
		c2.48,0.04,5.36-0.4,8.61-1.32c3.26-0.93,7.25-2.6,11.98-5.01H601.43z"/>
	<path class="st2" d="M680.41,167.91c-0.01,3.96-0.47,7.46-1.37,10.48c-0.89,3.03-2.13,5.51-3.7,7.42
		c-1.35,1.55-2.91,2.72-4.69,3.49c-1.78,0.77-3.69,1.17-5.75,1.17c-2.9-0.05-5.56-0.72-7.99-2c-2.42-1.27-3.71-2.81-3.86-4.63
		c0-4.94,0.03-10.08,0.09-15.43c0.05-5.33,0.12-10.44,0.19-15.31c2.56-1.83,5.13-3.21,7.69-4.12c2.56-0.92,4.99-1.37,7.26-1.37
		c1.93,0.02,3.68,0.53,5.28,1.53c1.59,0.99,2.89,2.32,3.89,3.97c0.99,1.65,1.72,3.63,2.22,5.96c0.49,2.31,0.74,5.21,0.74,8.69
		V167.91z M653.06,142.83c0.15-7.39,0.28-14.89,0.39-22.49c0.11-7.61,0.17-14.47,0.17-20.6c-0.01-0.14-0.06-0.25-0.16-0.32
		c-0.1-0.07-0.19-0.11-0.26-0.11c-0.59,0.03-2.47,0.28-5.64,0.76c-3.17,0.47-6.65,0.99-10.46,1.54c-3.8,0.55-6.93,0.96-9.39,1.23
		c-0.07,1.29-0.11,2.66-0.13,4.12c-0.01,1.46-0.02,2.9-0.02,4.33l9.86,0.42c0,11.18,0,22.91,0,35.21c0,12.28,0,23.99,0,35.09
		c-0.02,3.05-0.12,6.13-0.32,9.22c-0.19,3.1-0.37,5.61-0.53,7.54c1.7,0.36,3.33,0.67,4.89,0.94c1.56,0.26,2.98,0.47,4.26,0.61
		l3.94-5.06c2.08,1.22,4.47,2.19,7.17,2.93c2.7,0.74,5.48,1.12,8.34,1.15c3.77-0.03,7.15-0.46,10.13-1.29
		c2.98-0.82,5.33-1.84,7.06-3.08c2.62-1.8,4.9-3.93,6.85-6.35c1.94-2.43,3.41-4.87,4.41-7.31c1.33-3.07,2.27-6.13,2.84-9.2
		c0.56-3.07,0.84-6.35,0.82-9.83c-0.04-4.36-1.03-8.52-2.97-12.46c-1.95-3.95-4.58-7.18-7.89-9.7c-3.32-2.52-7.06-3.82-11.24-3.91
		c-1.75-0.03-3.44,0.1-5.06,0.38c-1.62,0.28-3.67,0.93-6.15,1.91c-2.48,0.99-5.89,2.53-10.22,4.6L653.06,142.83z"/>
	<rect x="309.31" y="5.97" class="st3" width="129.12" height="16.82"/>
</g>
<g>
	<g>
		<path class="st4" d="M829.55,191.42c-40.95,0-74.27-33.49-74.27-74.66V20.62h148.54v96.15
			C903.83,157.93,870.51,191.42,829.55,191.42z M758.28,23.62v93.15c0,39.51,31.97,71.66,71.27,71.66
			c39.3,0,71.28-32.15,71.28-71.66V23.62H758.28z"/>
	</g>
	<path class="st5" d="M844.82,163.03c-39.38,0-68.47-32.09-68.47-71.68c0-8.76,0-9.96,0-9.96h68.47V163.03z"/>
	<g>
		<path class="st5" d="M785.08,204.31c0-3.6,3.35-2.46,3.35-3.32c0-0.35-0.29-0.41-0.86-0.41c-2.38,0.06-3.86,0.13-5.43,0.13
			c-1.33,0-2.62-0.07-4-0.13c-0.62,0-1.43-0.16-1.43,0.34c0,1.16,5.86,0.16,5.86,3.85v6.31c0,5.4-1.23,10.44-10.72,10.44
			c-8.54,0-10.44-4.04-10.44-8.93v-6.92c0-5.24,4-3.54,4-4.64c0-0.18-0.1-0.44-0.52-0.44c-0.91,0-4.29,0.13-6.72,0.13
			c-2.39,0-5.96-0.13-6.57-0.13c-0.39,0-1,0.09-1,0.5c0,1.22,4.96,0.19,4.96,2.94v10.42c0,6.19,4.77,8.97,13.67,8.97
			c13.15,0,15.86-5.4,15.86-11.89V204.31z"/>
		<path class="st5" d="M808.48,219.01c0,3.79-5.39,2.25-5.39,3.5c0,0.7,0.81,0.67,1.67,0.67c1.9,0,3.48-0.13,6.67-0.13
			c3.2,0,4.77,0.13,6.68,0.13c1.38,0,2.33,0.09,2.33-0.67c0-0.89-6.1,0.04-6.1-3.89v-14.44c0-1.54,0.48-1.7,2.43-1.7h4.05
			c5.48-0.12,3.95,3.43,5.86,3.43c1.24,0,0.72-1.24,0.61-1.63l-0.53-2.94c-0.04-0.32-0.04-0.76-0.75-0.76
			c-4.44,0-7.62,0.13-14.59,0.13c-6.95,0-10.15-0.13-14.57-0.13c-0.72,0-0.72,0.44-0.77,0.76l-0.76,4.22
			c-0.09,0.41-0.38,1.11,0.62,1.11c2.15,0,0.72-4.19,6.1-4.19h4.01c1.95,0,2.42,0.16,2.42,1.7V219.01z"/>
		<path class="st5" d="M844.09,204.31c0-2.2,0.19-2.24,5.95-2.24c9.19,0,5.48,3.73,7.72,3.73c1.1,0,0.86-1.04,0.81-1.46l-0.19-3.16
			c0-0.29-0.34-0.6-0.95-0.6c-4.19,0-7.47,0.13-10.86,0.13c-7.29,0-10.72-0.13-12.67-0.13c-0.67,0-1.05,0.26-1.05,0.54
			c0,1.27,5.38,0.25,5.38,3.13v14.93c0,3.91-3.61,2.17-3.61,3.65c0,0.19,0.29,0.35,0.9,0.35c2.62,0,4.63-0.13,6.11-0.13
			c2.38,0,5.23,0.13,12.47,0.13c3.91,0,6.73-2.62,6.73-5.11c0-0.6-0.34-0.7-0.53-0.7c-1.81,0-1.14,4.19-12.96,4.19
			c-3.43,0-3.24-1.16-3.24-3.13v-4.08c0-1.84-0.19-2.24,2-2.24h3.52c4.96,0,3.63,3.38,5.15,3.38c1.14,0,0.86-1.14,0.81-1.55
			l-0.34-5.7c-0.04-0.86-0.57-0.79-0.91-0.79c-0.96,0-1.09,2.93-5.19,2.93h-3c-2.05,0-2.05-0.22-2.05-1.6V204.31z"/>
		<path class="st5" d="M873.68,208.81c0-0.22,0-0.79,0.33-0.79c0.2,0,0.38,0.35,0.53,0.54l9.24,13.76c0.24,0.35,0.48,0.89,1.19,0.89
			c0.76,0,0.95-0.48,1.24-0.89l9-12.62c0.72-1.05,1.28-1.68,1.48-1.68c0.28,0,0.32,0.47,0.38,1.43l0.72,9.68
			c0.29,3.54-3.43,2.49-3.43,3.59c0,0.56,1.19,0.47,2.19,0.47c1.1,0,2.25-0.13,5.34-0.13c1.38,0,2.72,0.13,4.09,0.13
			c1.68,0,2.29,0,2.29-0.56c0-1.17-4.39,0.23-4.62-3.95l-0.8-14.13c-0.2-3.69,4.47-2.43,4.47-3.6c0-0.23-0.1-0.37-1.38-0.37
			c-1.34,0-2.25,0.13-3.1,0.13c-0.72,0-1.63-0.13-2.77-0.13c-0.9,0-1.04,0.41-1.19,0.63l-11.05,15.46
			c-0.05,0.09-0.48,0.66-0.76,0.66c-0.29,0-0.43-0.2-0.62-0.5l-10.48-15.33c-0.67-0.97-1.14-0.92-1.67-0.92
			c-1.57,0-3.33,0.13-4.43,0.13c-1.52,0-2.24-0.13-2.86-0.13c-0.33,0-0.56,0.26-0.56,0.44c0,1.41,5.09-0.1,4.8,5.17l-0.67,12.85
			c-0.19,3.35-4.09,2.55-4.09,3.69c0,0.21,0.19,0.45,0.9,0.45c0.72,0,2.39-0.13,4.72-0.13c2.19,0,3.19,0.13,4.91,0.13
			c1.32,0,1.13-0.38,1.13-0.51c0-1.32-5.23,0.54-4.96-4.92L873.68,208.81z"/>
	</g>
	<rect x="844.84" y="41.02" class="st6" width="40.25" height="40.44"/>
</g>
</svg>
